<?xml version="1.0" encoding="UTF-8" standalone="no"?>
<!-- Created with Inkscape (http://www.inkscape.org/) -->

<svg
   width="1059.0751"
   height="208.16614"
   viewBox="0 0 280.2136 55.077294"
   version="1.1"
   id="svg5"
   inkscape:version="1.1 (c68e22c387, 2021-05-23)"
   sodipodi:docname="dude.svg"
   inkscape:export-filename="C:\Users\annar\code\myApps\phaser\ASCII_Platformer\assets\dude.png"
   inkscape:export-xdpi="300"
   inkscape:export-ydpi="300"
   shape-rendering="crispEdges"
   xmlns:inkscape="http://www.inkscape.org/namespaces/inkscape"
   xmlns:sodipodi="http://sodipodi.sourceforge.net/DTD/sodipodi-0.dtd"
   xmlns="http://www.w3.org/2000/svg"
   xmlns:svg="http://www.w3.org/2000/svg">
  <sodipodi:namedview
     id="namedview7"
     pagecolor="#2a2a2a"
     bordercolor="#eeeeee"
     borderopacity="1"
     inkscape:pageshadow="0"
     inkscape:pageopacity="0"
     inkscape:pagecheckerboard="false"
     inkscape:document-units="px"
     showgrid="true"
     units="px"
     inkscape:snap-page="true"
     inkscape:zoom="1"
     inkscape:cx="519.5"
     inkscape:cy="54.5"
     inkscape:current-layer="layer1"
     fit-margin-top="5"
     fit-margin-left="0"
     fit-margin-right="0"
     fit-margin-bottom="5"
     inkscape:snap-global="true">
    <inkscape:grid
       type="xygrid"
       id="grid415172"
       dotted="false"
       originx="-0.82974942"
       color="#b7b5bb"
       opacity="0.85098039"
       originy="-263.51205" />
  </sodipodi:namedview>
  <defs
     id="defs2" />
  <g
     inkscape:label="Layer 1"
     inkscape:groupmode="layer"
     id="layer1"
     transform="translate(-8.7531002,-469.51916)">
    <text
       xml:space="preserve"
       style="font-style:normal;font-variant:normal;font-weight:normal;font-stretch:normal;font-size:8.03326px;font-family:monospace;-inkscape-font-specification:monospace;fill:#ececec;stroke:none;stroke-width:0.0999997;stroke-linecap:round;stroke-linejoin:round;stroke-opacity:0.984314"
       x="120.80934"
       y="86.08049"
       id="text39232"><tspan
         sodipodi:role="line"
         id="tspan39230"
         style="stroke-width:0.0999997"
         x="120.80934"
         y="86.08049" /></text>
    <g
       aria-label="  _    _    _    _    _    _    _    _    _  (“)  (“)  (“)  (“)  (“)  (“)  (“)  (“)  (“) --|----|----|----|----|----|----|----|----|--   |    |    |    |    |    |    |    |    |  //   //   / \  / \  / \   \\   \\  / \  | | / \   \\   \  \/   \/  /   //   / \ \ /  | |"
       id="text229501"
       style="font-size:4.58611px;line-height:1;font-family:monospace;-inkscape-font-specification:monospace;fill:#ececec;stroke-width:0.0439139;stroke-linecap:round;stroke-linejoin:round;stroke-opacity:0.984314"
       transform="matrix(2.2771891,0,0,2.2771891,-10.270014,-4.4324015)">
      <path
         d="m 16.12642,209.17008 h -2.521465 q -0.165709,0 -0.235128,-0.0627 -0.07166,-0.0627 -0.07166,-0.16571 0,-0.103 0.07166,-0.16794 0.06942,-0.0627 0.235128,-0.0627 h 2.521465 q 0.16347,0 0.232888,0.0627 0.07166,0.0649 0.07166,0.16794 0,0.10077 -0.06942,0.16347 -0.06942,0.0649 -0.235128,0.0649 z"
         style="font-weight:bold;font-family:'Courier New';-inkscape-font-specification:'Courier New Bold';stroke-width:0.0439139"
         id="path12007" />
      <path
         d="m 29.88699,209.17008 h -2.521465 q -0.165709,0 -0.235128,-0.0627 -0.07166,-0.0627 -0.07166,-0.16571 0,-0.103 0.07166,-0.16794 0.06942,-0.0627 0.235128,-0.0627 h 2.521465 q 0.163469,0 0.232888,0.0627 0.07166,0.0649 0.07166,0.16794 0,0.10077 -0.06942,0.16347 -0.06942,0.0649 -0.235127,0.0649 z"
         style="font-weight:bold;font-family:'Courier New';-inkscape-font-specification:'Courier New Bold';stroke-width:0.0439139"
         id="path12009" />
      <path
         d="m 43.64756,209.17008 h -2.521465 q -0.165709,0 -0.235127,-0.0627 -0.07166,-0.0627 -0.07166,-0.16571 0,-0.103 0.07166,-0.16794 0.06942,-0.0627 0.235127,-0.0627 h 2.521465 q 0.16347,0 0.232888,0.0627 0.07166,0.0649 0.07166,0.16794 0,0.10077 -0.06942,0.16347 -0.06942,0.0649 -0.235128,0.0649 z"
         style="font-weight:bold;font-family:'Courier New';-inkscape-font-specification:'Courier New Bold';stroke-width:0.0439139"
         id="path12011" />
      <path
         d="m 57.408127,209.17008 h -2.521465 q -0.165709,0 -0.235128,-0.0627 -0.07166,-0.0627 -0.07166,-0.16571 0,-0.103 0.07166,-0.16794 0.06942,-0.0627 0.235128,-0.0627 h 2.521465 q 0.16347,0 0.232888,0.0627 0.07166,0.0649 0.07166,0.16794 0,0.10077 -0.06942,0.16347 -0.06942,0.0649 -0.235128,0.0649 z"
         style="font-weight:bold;font-family:'Courier New';-inkscape-font-specification:'Courier New Bold';stroke-width:0.0439139"
         id="path12013" />
      <path
         d="m 71.168697,209.17008 h -2.521465 q -0.165709,0 -0.235127,-0.0627 -0.07166,-0.0627 -0.07166,-0.16571 0,-0.103 0.07166,-0.16794 0.06942,-0.0627 0.235127,-0.0627 h 2.521465 q 0.16347,0 0.232889,0.0627 0.07166,0.0649 0.07166,0.16794 0,0.10077 -0.06942,0.16347 -0.06942,0.0649 -0.235128,0.0649 z"
         style="font-weight:bold;font-family:'Courier New';-inkscape-font-specification:'Courier New Bold';stroke-width:0.0439139"
         id="path12015" />
      <path
         d="m 84.929268,209.17008 h -2.521465 q -0.165709,0 -0.235128,-0.0627 -0.07166,-0.0627 -0.07166,-0.16571 0,-0.103 0.07166,-0.16794 0.06942,-0.0627 0.235128,-0.0627 h 2.521465 q 0.16347,0 0.232888,0.0627 0.07166,0.0649 0.07166,0.16794 0,0.10077 -0.06942,0.16347 -0.06942,0.0649 -0.235128,0.0649 z"
         style="font-weight:bold;font-family:'Courier New';-inkscape-font-specification:'Courier New Bold';stroke-width:0.0439139"
         id="path12017" />
      <path
         d="M 98.689835,209.17008 H 96.16837 q -0.165709,0 -0.235128,-0.0627 -0.07166,-0.0627 -0.07166,-0.16571 0,-0.103 0.07166,-0.16794 0.06942,-0.0627 0.235128,-0.0627 h 2.521465 q 0.163469,0 0.232888,0.0627 0.07166,0.0649 0.07166,0.16794 0,0.10077 -0.06942,0.16347 -0.06942,0.0649 -0.235127,0.0649 z"
         style="font-weight:bold;font-family:'Courier New';-inkscape-font-specification:'Courier New Bold';stroke-width:0.0439139"
         id="path12019" />
      <path
         d="m 112.4504,209.17008 h -2.52146 q -0.16571,0 -0.23513,-0.0627 -0.0717,-0.0627 -0.0717,-0.16571 0,-0.103 0.0717,-0.16794 0.0694,-0.0627 0.23513,-0.0627 h 2.52146 q 0.16347,0 0.23289,0.0627 0.0717,0.0649 0.0717,0.16794 0,0.10077 -0.0694,0.16347 -0.0694,0.0649 -0.23513,0.0649 z"
         style="font-weight:bold;font-family:'Courier New';-inkscape-font-specification:'Courier New Bold';stroke-width:0.0439139"
         id="path12021" />
      <path
         d="m 126.21098,209.17008 h -2.52147 q -0.16571,0 -0.23513,-0.0627 -0.0717,-0.0627 -0.0717,-0.16571 0,-0.103 0.0717,-0.16794 0.0694,-0.0627 0.23513,-0.0627 h 2.52147 q 0.16347,0 0.23288,0.0627 0.0717,0.0649 0.0717,0.16794 0,0.10077 -0.0694,0.16347 -0.0694,0.0649 -0.23512,0.0649 z"
         style="font-weight:bold;font-family:'Courier New';-inkscape-font-specification:'Courier New Bold';stroke-width:0.0439139"
         id="path12023" />
      <path
         d="m 11.938907,211.32297 q 0,-0.39188 0.129881,-0.79271 0.09629,-0.29559 0.297828,-0.65836 0.145555,-0.25976 0.214974,-0.31798 0.06942,-0.0605 0.154512,-0.0605 0.09853,0 0.165709,0.0672 0.06718,0.0672 0.06718,0.16123 0,0.0649 -0.05374,0.15452 -0.241845,0.39635 -0.353811,0.74345 -0.109726,0.34709 -0.109726,0.70314 0,0.35829 0.109726,0.70538 0.111966,0.3471 0.353811,0.74346 0.05374,0.0873 0.05374,0.15451 0,0.0941 -0.06718,0.16123 -0.06718,0.0672 -0.165709,0.0672 -0.08285,0 -0.145555,-0.0537 -0.08957,-0.0784 -0.237367,-0.35158 -0.212735,-0.39635 -0.29111,-0.65388 -0.123163,-0.39411 -0.123163,-0.77256 z"
         style="font-weight:bold;font-family:'Courier New';-inkscape-font-specification:'Courier New Bold';stroke-width:0.0439139"
         id="path12025" />
      <path
         d="m 15.351618,209.61214 0.394119,0.98306 q 0.02015,0.0515 0.02015,0.0873 0,0.047 -0.04479,0.0873 -0.04255,0.0403 -0.100769,0.0403 -0.06718,0 -0.123163,-0.0918 l -0.691947,-1.10622 z m -0.962904,0 0.394119,0.98306 q 0.02015,0.0515 0.02015,0.0873 0,0.047 -0.04479,0.0873 -0.04479,0.0403 -0.103009,0.0403 -0.06494,0 -0.120923,-0.0918 l -0.691947,-1.10622 z"
         style="font-weight:bold;font-family:'Courier New';-inkscape-font-specification:'Courier New Bold';stroke-width:0.0439139"
         id="path12027" />
      <path
         d="m 17.803665,211.32297 q 0,0.39188 -0.12988,0.79496 -0.09629,0.29559 -0.297829,0.65612 -0.145555,0.25976 -0.214974,0.32022 -0.06942,0.0605 -0.154512,0.0605 -0.09853,0 -0.165709,-0.0672 -0.06718,-0.0672 -0.06718,-0.16123 0,-0.0672 0.05374,-0.15451 0.241846,-0.39636 0.351572,-0.74346 0.111965,-0.34709 0.111965,-0.70538 0,-0.35605 -0.111965,-0.70314 -0.109726,-0.3471 -0.351572,-0.74345 -0.05374,-0.0896 -0.05374,-0.15452 0,-0.094 0.06718,-0.16123 0.06718,-0.0672 0.165709,-0.0672 0.08285,0 0.145555,0.0538 0.08957,0.0761 0.237367,0.35157 0.212735,0.39636 0.291111,0.65164 0.123162,0.39636 0.123162,0.77256 z"
         style="font-weight:bold;font-family:'Courier New';-inkscape-font-specification:'Courier New Bold';stroke-width:0.0439139"
         id="path12029" />
      <path
         d="m 25.699477,211.32297 q 0,-0.39188 0.129881,-0.79271 0.09629,-0.29559 0.297828,-0.65836 0.145555,-0.25976 0.214974,-0.31798 0.06942,-0.0605 0.154512,-0.0605 0.09853,0 0.165709,0.0672 0.06718,0.0672 0.06718,0.16123 0,0.0649 -0.05374,0.15452 -0.241845,0.39635 -0.353811,0.74345 -0.109726,0.34709 -0.109726,0.70314 0,0.35829 0.109726,0.70538 0.111966,0.3471 0.353811,0.74346 0.05374,0.0873 0.05374,0.15451 0,0.0941 -0.06718,0.16123 -0.06718,0.0672 -0.165709,0.0672 -0.08285,0 -0.145555,-0.0537 -0.08957,-0.0784 -0.237367,-0.35158 -0.212734,-0.39635 -0.29111,-0.65388 -0.123163,-0.39411 -0.123163,-0.77256 z"
         style="font-weight:bold;font-family:'Courier New';-inkscape-font-specification:'Courier New Bold';stroke-width:0.0439139"
         id="path12031" />
      <path
         d="m 29.112188,209.61214 0.394119,0.98306 q 0.02015,0.0515 0.02015,0.0873 0,0.047 -0.04479,0.0873 -0.04255,0.0403 -0.100769,0.0403 -0.06718,0 -0.123162,-0.0918 l -0.691947,-1.10622 z m -0.962904,0 0.394119,0.98306 q 0.02015,0.0515 0.02015,0.0873 0,0.047 -0.04479,0.0873 -0.04479,0.0403 -0.103008,0.0403 -0.06494,0 -0.120923,-0.0918 l -0.691947,-1.10622 z"
         style="font-weight:bold;font-family:'Courier New';-inkscape-font-specification:'Courier New Bold';stroke-width:0.0439139"
         id="path12033" />
      <path
         d="m 31.564233,211.32297 q 0,0.39188 -0.12988,0.79496 -0.09629,0.29559 -0.297828,0.65612 -0.145555,0.25976 -0.214974,0.32022 -0.06942,0.0605 -0.154513,0.0605 -0.09853,0 -0.165709,-0.0672 -0.06718,-0.0672 -0.06718,-0.16123 0,-0.0672 0.05374,-0.15451 0.241846,-0.39636 0.351572,-0.74346 0.111966,-0.34709 0.111966,-0.70538 0,-0.35605 -0.111966,-0.70314 -0.109726,-0.3471 -0.351572,-0.74345 -0.05374,-0.0896 -0.05374,-0.15452 0,-0.094 0.06718,-0.16123 0.06718,-0.0672 0.165709,-0.0672 0.08286,0 0.145556,0.0538 0.08957,0.0761 0.237367,0.35157 0.212734,0.39636 0.29111,0.65164 0.123162,0.39636 0.123162,0.77256 z"
         style="font-weight:bold;font-family:'Courier New';-inkscape-font-specification:'Courier New Bold';stroke-width:0.0439139"
         id="path12035" />
      <path
         d="m 39.460046,211.32297 q 0,-0.39188 0.12988,-0.79271 0.09629,-0.29559 0.297829,-0.65836 0.145555,-0.25976 0.214974,-0.31798 0.06942,-0.0605 0.154512,-0.0605 0.09853,0 0.165709,0.0672 0.06718,0.0672 0.06718,0.16123 0,0.0649 -0.05374,0.15452 -0.241846,0.39635 -0.353811,0.74345 -0.109727,0.34709 -0.109727,0.70314 0,0.35829 0.109727,0.70538 0.111965,0.3471 0.353811,0.74346 0.05374,0.0873 0.05374,0.15451 0,0.0941 -0.06718,0.16123 -0.06718,0.0672 -0.165709,0.0672 -0.08285,0 -0.145555,-0.0537 -0.08957,-0.0784 -0.237367,-0.35158 -0.212735,-0.39635 -0.291111,-0.65388 -0.123162,-0.39411 -0.123162,-0.77256 z"
         style="font-weight:bold;font-family:'Courier New';-inkscape-font-specification:'Courier New Bold';stroke-width:0.0439139"
         id="path12037" />
      <path
         d="m 42.872758,209.61214 0.394119,0.98306 q 0.02015,0.0515 0.02015,0.0873 0,0.047 -0.04479,0.0873 -0.04255,0.0403 -0.100769,0.0403 -0.06718,0 -0.123162,-0.0918 l -0.691948,-1.10622 z m -0.962904,0 0.394119,0.98306 q 0.02015,0.0515 0.02015,0.0873 0,0.047 -0.04479,0.0873 -0.04479,0.0403 -0.103009,0.0403 -0.06494,0 -0.120922,-0.0918 l -0.691948,-1.10622 z"
         style="font-weight:bold;font-family:'Courier New';-inkscape-font-specification:'Courier New Bold';stroke-width:0.0439139"
         id="path12039" />
      <path
         d="m 45.324804,211.32297 q 0,0.39188 -0.12988,0.79496 -0.09629,0.29559 -0.297829,0.65612 -0.145555,0.25976 -0.214974,0.32022 -0.06942,0.0605 -0.154512,0.0605 -0.09853,0 -0.165709,-0.0672 -0.06718,-0.0672 -0.06718,-0.16123 0,-0.0672 0.05374,-0.15451 0.241846,-0.39636 0.351572,-0.74346 0.111966,-0.34709 0.111966,-0.70538 0,-0.35605 -0.111966,-0.70314 -0.109726,-0.3471 -0.351572,-0.74345 -0.05374,-0.0896 -0.05374,-0.15452 0,-0.094 0.06718,-0.16123 0.06718,-0.0672 0.165709,-0.0672 0.08285,0 0.145555,0.0538 0.08957,0.0761 0.237367,0.35157 0.212735,0.39636 0.291111,0.65164 0.123162,0.39636 0.123162,0.77256 z"
         style="font-weight:bold;font-family:'Courier New';-inkscape-font-specification:'Courier New Bold';stroke-width:0.0439139"
         id="path12041" />
      <path
         d="m 53.220615,211.32297 q 0,-0.39188 0.12988,-0.79271 0.09629,-0.29559 0.297828,-0.65836 0.145555,-0.25976 0.214974,-0.31798 0.06942,-0.0605 0.154513,-0.0605 0.09853,0 0.165709,0.0672 0.06718,0.0672 0.06718,0.16123 0,0.0649 -0.05374,0.15452 -0.241846,0.39635 -0.353812,0.74345 -0.109726,0.34709 -0.109726,0.70314 0,0.35829 0.109726,0.70538 0.111966,0.3471 0.353812,0.74346 0.05374,0.0873 0.05374,0.15451 0,0.0941 -0.06718,0.16123 -0.06718,0.0672 -0.165709,0.0672 -0.08285,0 -0.145556,-0.0537 -0.08957,-0.0784 -0.237367,-0.35158 -0.212734,-0.39635 -0.29111,-0.65388 -0.123162,-0.39411 -0.123162,-0.77256 z"
         style="font-weight:bold;font-family:'Courier New';-inkscape-font-specification:'Courier New Bold';stroke-width:0.0439139"
         id="path12043" />
      <path
         d="m 56.633325,209.61214 0.394119,0.98306 q 0.02015,0.0515 0.02015,0.0873 0,0.047 -0.04479,0.0873 -0.04255,0.0403 -0.100769,0.0403 -0.06718,0 -0.123162,-0.0918 l -0.691947,-1.10622 z m -0.962904,0 0.394119,0.98306 q 0.02015,0.0515 0.02015,0.0873 0,0.047 -0.04479,0.0873 -0.04479,0.0403 -0.103008,0.0403 -0.06494,0 -0.120923,-0.0918 l -0.691947,-1.10622 z"
         style="font-weight:bold;font-family:'Courier New';-inkscape-font-specification:'Courier New Bold';stroke-width:0.0439139"
         id="path12045" />
      <path
         d="m 59.085371,211.32297 q 0,0.39188 -0.12988,0.79496 -0.09629,0.29559 -0.297829,0.65612 -0.145555,0.25976 -0.214974,0.32022 -0.06942,0.0605 -0.154512,0.0605 -0.09853,0 -0.165709,-0.0672 -0.06718,-0.0672 -0.06718,-0.16123 0,-0.0672 0.05374,-0.15451 0.241845,-0.39636 0.351572,-0.74346 0.111965,-0.34709 0.111965,-0.70538 0,-0.35605 -0.111965,-0.70314 -0.109727,-0.3471 -0.351572,-0.74345 -0.05374,-0.0896 -0.05374,-0.15452 0,-0.094 0.06718,-0.16123 0.06718,-0.0672 0.165709,-0.0672 0.08285,0 0.145555,0.0538 0.08957,0.0761 0.237367,0.35157 0.212735,0.39636 0.29111,0.65164 0.123163,0.39636 0.123163,0.77256 z"
         style="font-weight:bold;font-family:'Courier New';-inkscape-font-specification:'Courier New Bold';stroke-width:0.0439139"
         id="path12047" />
      <path
         d="m 66.981185,211.32297 q 0,-0.39188 0.12988,-0.79271 0.09629,-0.29559 0.297829,-0.65836 0.145555,-0.25976 0.214974,-0.31798 0.06942,-0.0605 0.154512,-0.0605 0.09853,0 0.165709,0.0672 0.06718,0.0672 0.06718,0.16123 0,0.0649 -0.05374,0.15452 -0.241846,0.39635 -0.353811,0.74345 -0.109726,0.34709 -0.109726,0.70314 0,0.35829 0.109726,0.70538 0.111965,0.3471 0.353811,0.74346 0.05374,0.0873 0.05374,0.15451 0,0.0941 -0.06718,0.16123 -0.06718,0.0672 -0.165709,0.0672 -0.08285,0 -0.145555,-0.0537 -0.08957,-0.0784 -0.237367,-0.35158 -0.212735,-0.39635 -0.291111,-0.65388 -0.123162,-0.39411 -0.123162,-0.77256 z"
         style="font-weight:bold;font-family:'Courier New';-inkscape-font-specification:'Courier New Bold';stroke-width:0.0439139"
         id="path12049" />
      <path
         d="m 70.393896,209.61214 0.394118,0.98306 q 0.02015,0.0515 0.02015,0.0873 0,0.047 -0.04479,0.0873 -0.04255,0.0403 -0.100769,0.0403 -0.06718,0 -0.123162,-0.0918 l -0.691948,-1.10622 z m -0.962904,0 0.394118,0.98306 q 0.02015,0.0515 0.02015,0.0873 0,0.047 -0.04479,0.0873 -0.04479,0.0403 -0.103008,0.0403 -0.06494,0 -0.120923,-0.0918 L 68.8846,209.61214 Z"
         style="font-weight:bold;font-family:'Courier New';-inkscape-font-specification:'Courier New Bold';stroke-width:0.0439139"
         id="path12051" />
      <path
         d="m 72.845941,211.32297 q 0,0.39188 -0.12988,0.79496 -0.09629,0.29559 -0.297828,0.65612 -0.145556,0.25976 -0.214974,0.32022 -0.06942,0.0605 -0.154513,0.0605 -0.09853,0 -0.165709,-0.0672 -0.06718,-0.0672 -0.06718,-0.16123 0,-0.0672 0.05374,-0.15451 0.241846,-0.39636 0.351572,-0.74346 0.111966,-0.34709 0.111966,-0.70538 0,-0.35605 -0.111966,-0.70314 -0.109726,-0.3471 -0.351572,-0.74345 -0.05374,-0.0896 -0.05374,-0.15452 0,-0.094 0.06718,-0.16123 0.06718,-0.0672 0.165709,-0.0672 0.08286,0 0.145555,0.0538 0.08957,0.0761 0.237367,0.35157 0.212735,0.39636 0.291111,0.65164 0.123162,0.39636 0.123162,0.77256 z"
         style="font-weight:bold;font-family:'Courier New';-inkscape-font-specification:'Courier New Bold';stroke-width:0.0439139"
         id="path12053" />
      <path
         d="m 80.741756,211.32297 q 0,-0.39188 0.12988,-0.79271 0.09629,-0.29559 0.297828,-0.65836 0.145556,-0.25976 0.214974,-0.31798 0.06942,-0.0605 0.154513,-0.0605 0.09853,0 0.165709,0.0672 0.06718,0.0672 0.06718,0.16123 0,0.0649 -0.05374,0.15452 -0.241846,0.39635 -0.353812,0.74345 -0.109726,0.34709 -0.109726,0.70314 0,0.35829 0.109726,0.70538 0.111966,0.3471 0.353812,0.74346 0.05374,0.0873 0.05374,0.15451 0,0.0941 -0.06718,0.16123 -0.06718,0.0672 -0.165709,0.0672 -0.08285,0 -0.145556,-0.0537 -0.08957,-0.0784 -0.237367,-0.35158 -0.212734,-0.39635 -0.29111,-0.65388 -0.123162,-0.39411 -0.123162,-0.77256 z"
         style="font-weight:bold;font-family:'Courier New';-inkscape-font-specification:'Courier New Bold';stroke-width:0.0439139"
         id="path12055" />
      <path
         d="m 84.154466,209.61214 0.394119,0.98306 q 0.02015,0.0515 0.02015,0.0873 0,0.047 -0.04479,0.0873 -0.04255,0.0403 -0.100769,0.0403 -0.06718,0 -0.123162,-0.0918 l -0.691947,-1.10622 z m -0.962904,0 0.394119,0.98306 q 0.02015,0.0515 0.02015,0.0873 0,0.047 -0.04479,0.0873 -0.04479,0.0403 -0.103008,0.0403 -0.06494,0 -0.120923,-0.0918 l -0.691947,-1.10622 z"
         style="font-weight:bold;font-family:'Courier New';-inkscape-font-specification:'Courier New Bold';stroke-width:0.0439139"
         id="path12057" />
      <path
         d="m 86.606512,211.32297 q 0,0.39188 -0.12988,0.79496 -0.09629,0.29559 -0.297829,0.65612 -0.145555,0.25976 -0.214974,0.32022 -0.06942,0.0605 -0.154512,0.0605 -0.09853,0 -0.165709,-0.0672 -0.06718,-0.0672 -0.06718,-0.16123 0,-0.0672 0.05374,-0.15451 0.241845,-0.39636 0.351572,-0.74346 0.111965,-0.34709 0.111965,-0.70538 0,-0.35605 -0.111965,-0.70314 -0.109727,-0.3471 -0.351572,-0.74345 -0.05374,-0.0896 -0.05374,-0.15452 0,-0.094 0.06718,-0.16123 0.06718,-0.0672 0.165709,-0.0672 0.08285,0 0.145555,0.0538 0.08957,0.0761 0.237367,0.35157 0.212735,0.39636 0.29111,0.65164 0.123163,0.39636 0.123163,0.77256 z"
         style="font-weight:bold;font-family:'Courier New';-inkscape-font-specification:'Courier New Bold';stroke-width:0.0439139"
         id="path12059" />
      <path
         d="m 94.502322,211.32297 q 0,-0.39188 0.129881,-0.79271 0.09629,-0.29559 0.297828,-0.65836 0.145555,-0.25976 0.214974,-0.31798 0.06942,-0.0605 0.154512,-0.0605 0.09853,0 0.165709,0.0672 0.06718,0.0672 0.06718,0.16123 0,0.0649 -0.05374,0.15452 -0.241845,0.39635 -0.353811,0.74345 -0.109726,0.34709 -0.109726,0.70314 0,0.35829 0.109726,0.70538 0.111966,0.3471 0.353811,0.74346 0.05374,0.0873 0.05374,0.15451 0,0.0941 -0.06718,0.16123 -0.06718,0.0672 -0.165709,0.0672 -0.08285,0 -0.145555,-0.0537 -0.08957,-0.0784 -0.237367,-0.35158 -0.212734,-0.39635 -0.29111,-0.65388 -0.123163,-0.39411 -0.123163,-0.77256 z"
         style="font-weight:bold;font-family:'Courier New';-inkscape-font-specification:'Courier New Bold';stroke-width:0.0439139"
         id="path12061" />
      <path
         d="m 97.915033,209.61214 0.394119,0.98306 q 0.02015,0.0515 0.02015,0.0873 0,0.047 -0.04479,0.0873 -0.04255,0.0403 -0.100769,0.0403 -0.06718,0 -0.123162,-0.0918 l -0.691947,-1.10622 z m -0.962904,0 0.394119,0.98306 q 0.02015,0.0515 0.02015,0.0873 0,0.047 -0.04479,0.0873 -0.04479,0.0403 -0.103008,0.0403 -0.06494,0 -0.120923,-0.0918 l -0.691947,-1.10622 z"
         style="font-weight:bold;font-family:'Courier New';-inkscape-font-specification:'Courier New Bold';stroke-width:0.0439139"
         id="path12063" />
      <path
         d="m 100.36708,211.32297 q 0,0.39188 -0.12988,0.79496 -0.0963,0.29559 -0.29783,0.65612 -0.145555,0.25976 -0.214974,0.32022 -0.06942,0.0605 -0.154513,0.0605 -0.09853,0 -0.165709,-0.0672 -0.06718,-0.0672 -0.06718,-0.16123 0,-0.0672 0.05374,-0.15451 0.241846,-0.39636 0.351572,-0.74346 0.111966,-0.34709 0.111966,-0.70538 0,-0.35605 -0.111966,-0.70314 -0.109726,-0.3471 -0.351572,-0.74345 -0.05374,-0.0896 -0.05374,-0.15452 0,-0.094 0.06718,-0.16123 0.06718,-0.0672 0.165709,-0.0672 0.08285,0 0.145556,0.0538 0.08957,0.0761 0.237367,0.35157 0.212734,0.39636 0.291114,0.65164 0.12316,0.39636 0.12316,0.77256 z"
         style="font-weight:bold;font-family:'Courier New';-inkscape-font-specification:'Courier New Bold';stroke-width:0.0439139"
         id="path12065" />
      <path
         d="m 108.26289,211.32297 q 0,-0.39188 0.12988,-0.79271 0.0963,-0.29559 0.29783,-0.65836 0.14555,-0.25976 0.21497,-0.31798 0.0694,-0.0605 0.15451,-0.0605 0.0985,0 0.16571,0.0672 0.0672,0.0672 0.0672,0.16123 0,0.0649 -0.0537,0.15452 -0.24185,0.39635 -0.35381,0.74345 -0.10973,0.34709 -0.10973,0.70314 0,0.35829 0.10973,0.70538 0.11196,0.3471 0.35381,0.74346 0.0537,0.0873 0.0537,0.15451 0,0.0941 -0.0672,0.16123 -0.0672,0.0672 -0.16571,0.0672 -0.0828,0 -0.14555,-0.0537 -0.0896,-0.0784 -0.23737,-0.35158 -0.21273,-0.39635 -0.29111,-0.65388 -0.12316,-0.39411 -0.12316,-0.77256 z"
         style="font-weight:bold;font-family:'Courier New';-inkscape-font-specification:'Courier New Bold';stroke-width:0.0439139"
         id="path12067" />
      <path
         d="m 111.6756,209.61214 0.39412,0.98306 q 0.0202,0.0515 0.0202,0.0873 0,0.047 -0.0448,0.0873 -0.0426,0.0403 -0.10077,0.0403 -0.0672,0 -0.12317,-0.0918 l -0.69194,-1.10622 z m -0.9629,0 0.39411,0.98306 q 0.0202,0.0515 0.0202,0.0873 0,0.047 -0.0448,0.0873 -0.0448,0.0403 -0.10301,0.0403 -0.0649,0 -0.12092,-0.0918 l -0.69195,-1.10622 z"
         style="font-weight:bold;font-family:'Courier New';-inkscape-font-specification:'Courier New Bold';stroke-width:0.0439139"
         id="path12069" />
      <path
         d="m 114.12765,211.32297 q 0,0.39188 -0.12989,0.79496 -0.0963,0.29559 -0.29782,0.65612 -0.14556,0.25976 -0.21498,0.32022 -0.0694,0.0605 -0.15451,0.0605 -0.0985,0 -0.16571,-0.0672 -0.0672,-0.0672 -0.0672,-0.16123 0,-0.0672 0.0537,-0.15451 0.24184,-0.39636 0.35157,-0.74346 0.11196,-0.34709 0.11196,-0.70538 0,-0.35605 -0.11196,-0.70314 -0.10973,-0.3471 -0.35157,-0.74345 -0.0537,-0.0896 -0.0537,-0.15452 0,-0.094 0.0672,-0.16123 0.0672,-0.0672 0.16571,-0.0672 0.0829,0 0.14556,0.0538 0.0896,0.0761 0.23736,0.35157 0.21274,0.39636 0.29111,0.65164 0.12317,0.39636 0.12317,0.77256 z"
         style="font-weight:bold;font-family:'Courier New';-inkscape-font-specification:'Courier New Bold';stroke-width:0.0439139"
         id="path12071" />
      <path
         d="m 122.02346,211.32297 q 0,-0.39188 0.12988,-0.79271 0.0963,-0.29559 0.29783,-0.65836 0.14556,-0.25976 0.21498,-0.31798 0.0694,-0.0605 0.15451,-0.0605 0.0985,0 0.16571,0.0672 0.0672,0.0672 0.0672,0.16123 0,0.0649 -0.0538,0.15452 -0.24184,0.39635 -0.35381,0.74345 -0.10972,0.34709 -0.10972,0.70314 0,0.35829 0.10972,0.70538 0.11197,0.3471 0.35381,0.74346 0.0538,0.0873 0.0538,0.15451 0,0.0941 -0.0672,0.16123 -0.0672,0.0672 -0.16571,0.0672 -0.0829,0 -0.14556,-0.0537 -0.0896,-0.0784 -0.23736,-0.35158 -0.21274,-0.39635 -0.29111,-0.65388 -0.12317,-0.39411 -0.12317,-0.77256 z"
         style="font-weight:bold;font-family:'Courier New';-inkscape-font-specification:'Courier New Bold';stroke-width:0.0439139"
         id="path12073" />
      <path
         d="m 125.43617,209.61214 0.39412,0.98306 q 0.0202,0.0515 0.0202,0.0873 0,0.047 -0.0448,0.0873 -0.0426,0.0403 -0.10077,0.0403 -0.0672,0 -0.12316,-0.0918 l -0.69195,-1.10622 z m -0.9629,0 0.39412,0.98306 q 0.0202,0.0515 0.0202,0.0873 0,0.047 -0.0448,0.0873 -0.0448,0.0403 -0.10301,0.0403 -0.0649,0 -0.12092,-0.0918 l -0.69195,-1.10622 z"
         style="font-weight:bold;font-family:'Courier New';-inkscape-font-specification:'Courier New Bold';stroke-width:0.0439139"
         id="path12075" />
      <path
         d="m 127.88822,211.32297 q 0,0.39188 -0.12988,0.79496 -0.0963,0.29559 -0.29783,0.65612 -0.14555,0.25976 -0.21497,0.32022 -0.0694,0.0605 -0.15452,0.0605 -0.0985,0 -0.1657,-0.0672 -0.0672,-0.0672 -0.0672,-0.16123 0,-0.0672 0.0537,-0.15451 0.24185,-0.39636 0.35157,-0.74346 0.11197,-0.34709 0.11197,-0.70538 0,-0.35605 -0.11197,-0.70314 -0.10972,-0.3471 -0.35157,-0.74345 -0.0537,-0.0896 -0.0537,-0.15452 0,-0.094 0.0672,-0.16123 0.0672,-0.0672 0.1657,-0.0672 0.0829,0 0.14556,0.0538 0.0896,0.0761 0.23737,0.35157 0.21273,0.39636 0.29111,0.65164 0.12316,0.39636 0.12316,0.77256 z"
         style="font-weight:bold;font-family:'Courier New';-inkscape-font-specification:'Courier New Bold';stroke-width:0.0439139"
         id="path12077" />
      <path
         d="M 10.313167,215.99061 H 8.3963166 v -0.41876 h 1.9168504 z"
         style="font-weight:bold;font-family:'Courier New';-inkscape-font-specification:'Courier New Bold';stroke-width:0.0439139"
         id="path12079" />
      <path
         d="M 13.065281,215.99061 H 11.14843 v -0.41876 h 1.916851 z"
         style="font-weight:bold;font-family:'Courier New';-inkscape-font-specification:'Courier New Bold';stroke-width:0.0439139"
         id="path12081" />
      <path
         d="m 15.087379,214.62687 v 2.73196 q 0,0.23512 -0.0112,0.27991 -0.01792,0.0672 -0.08061,0.1142 -0.06046,0.047 -0.136598,0.047 -0.07838,0 -0.141077,-0.047 -0.06046,-0.047 -0.07838,-0.11868 -0.0112,-0.0403 -0.0112,-0.27543 v -2.73196 q 0,-0.23513 0.0112,-0.27992 0.01792,-0.0672 0.07838,-0.1142 0.0627,-0.047 0.141077,-0.047 0.07614,0 0.136598,0.047 0.0627,0.047 0.08061,0.11644 0.0112,0.0448 0.0112,0.27768 z"
         style="font-weight:bold;font-family:'Courier New';-inkscape-font-specification:'Courier New Bold';stroke-width:0.0439139"
         id="path12083" />
      <path
         d="m 18.569509,215.99061 h -1.91685 v -0.41876 h 1.91685 z"
         style="font-weight:bold;font-family:'Courier New';-inkscape-font-specification:'Courier New Bold';stroke-width:0.0439139"
         id="path12085" />
      <path
         d="m 21.321623,215.99061 h -1.916851 v -0.41876 h 1.916851 z"
         style="font-weight:bold;font-family:'Courier New';-inkscape-font-specification:'Courier New Bold';stroke-width:0.0439139"
         id="path12087" />
      <path
         d="m 24.073736,215.99061 h -1.916851 v -0.41876 h 1.916851 z"
         style="font-weight:bold;font-family:'Courier New';-inkscape-font-specification:'Courier New Bold';stroke-width:0.0439139"
         id="path12089" />
      <path
         d="m 26.825851,215.99061 h -1.91685 v -0.41876 h 1.91685 z"
         style="font-weight:bold;font-family:'Courier New';-inkscape-font-specification:'Courier New Bold';stroke-width:0.0439139"
         id="path12091" />
      <path
         d="m 28.847949,214.62687 v 2.73196 q 0,0.23512 -0.0112,0.27991 -0.01791,0.0672 -0.08062,0.1142 -0.06046,0.047 -0.136598,0.047 -0.07838,0 -0.141076,-0.047 -0.06046,-0.047 -0.07838,-0.11868 -0.0112,-0.0403 -0.0112,-0.27543 v -2.73196 q 0,-0.23513 0.0112,-0.27992 0.01791,-0.0672 0.07838,-0.1142 0.0627,-0.047 0.141076,-0.047 0.07614,0 0.136598,0.047 0.0627,0.047 0.08062,0.11644 0.0112,0.0448 0.0112,0.27768 z"
         style="font-weight:bold;font-family:'Courier New';-inkscape-font-specification:'Courier New Bold';stroke-width:0.0439139"
         id="path12093" />
      <path
         d="m 32.330078,215.99061 h -1.916851 v -0.41876 h 1.916851 z"
         style="font-weight:bold;font-family:'Courier New';-inkscape-font-specification:'Courier New Bold';stroke-width:0.0439139"
         id="path12095" />
      <path
         d="m 35.082191,215.99061 h -1.91685 v -0.41876 h 1.91685 z"
         style="font-weight:bold;font-family:'Courier New';-inkscape-font-specification:'Courier New Bold';stroke-width:0.0439139"
         id="path12097" />
      <path
         d="m 37.834305,215.99061 h -1.916851 v -0.41876 h 1.916851 z"
         style="font-weight:bold;font-family:'Courier New';-inkscape-font-specification:'Courier New Bold';stroke-width:0.0439139"
         id="path12099" />
      <path
         d="m 40.58642,215.99061 h -1.916851 v -0.41876 h 1.916851 z"
         style="font-weight:bold;font-family:'Courier New';-inkscape-font-specification:'Courier New Bold';stroke-width:0.0439139"
         id="path12101" />
      <path
         d="m 42.60852,214.62687 v 2.73196 q 0,0.23512 -0.0112,0.27991 -0.01792,0.0672 -0.08062,0.1142 -0.06046,0.047 -0.136598,0.047 -0.07838,0 -0.141077,-0.047 -0.06046,-0.047 -0.07838,-0.11868 -0.0112,-0.0403 -0.0112,-0.27543 v -2.73196 q 0,-0.23513 0.0112,-0.27992 0.01792,-0.0672 0.07838,-0.1142 0.0627,-0.047 0.141077,-0.047 0.07614,0 0.136598,0.047 0.0627,0.047 0.08062,0.11644 0.0112,0.0448 0.0112,0.27768 z"
         style="font-weight:bold;font-family:'Courier New';-inkscape-font-specification:'Courier New Bold';stroke-width:0.0439139"
         id="path12103" />
      <path
         d="m 46.090648,215.99061 h -1.91685 v -0.41876 h 1.91685 z"
         style="font-weight:bold;font-family:'Courier New';-inkscape-font-specification:'Courier New Bold';stroke-width:0.0439139"
         id="path12105" />
      <path
         d="m 48.842762,215.99061 h -1.916851 v -0.41876 h 1.916851 z"
         style="font-weight:bold;font-family:'Courier New';-inkscape-font-specification:'Courier New Bold';stroke-width:0.0439139"
         id="path12107" />
      <path
         d="m 51.594875,215.99061 h -1.916851 v -0.41876 h 1.916851 z"
         style="font-weight:bold;font-family:'Courier New';-inkscape-font-specification:'Courier New Bold';stroke-width:0.0439139"
         id="path12109" />
      <path
         d="m 54.346988,215.99061 h -1.91685 v -0.41876 h 1.91685 z"
         style="font-weight:bold;font-family:'Courier New';-inkscape-font-specification:'Courier New Bold';stroke-width:0.0439139"
         id="path12111" />
      <path
         d="m 56.369086,214.62687 v 2.73196 q 0,0.23512 -0.0112,0.27991 -0.01791,0.0672 -0.08062,0.1142 -0.06046,0.047 -0.136598,0.047 -0.07838,0 -0.141076,-0.047 -0.06046,-0.047 -0.07838,-0.11868 -0.0112,-0.0403 -0.0112,-0.27543 v -2.73196 q 0,-0.23513 0.0112,-0.27992 0.01791,-0.0672 0.07838,-0.1142 0.0627,-0.047 0.141076,-0.047 0.07614,0 0.136598,0.047 0.0627,0.047 0.08062,0.11644 0.0112,0.0448 0.0112,0.27768 z"
         style="font-weight:bold;font-family:'Courier New';-inkscape-font-specification:'Courier New Bold';stroke-width:0.0439139"
         id="path12113" />
      <path
         d="m 59.851215,215.99061 h -1.916851 v -0.41876 h 1.916851 z"
         style="font-weight:bold;font-family:'Courier New';-inkscape-font-specification:'Courier New Bold';stroke-width:0.0439139"
         id="path12115" />
      <path
         d="m 62.603328,215.99061 h -1.91685 v -0.41876 h 1.91685 z"
         style="font-weight:bold;font-family:'Courier New';-inkscape-font-specification:'Courier New Bold';stroke-width:0.0439139"
         id="path12117" />
      <path
         d="m 65.355442,215.99061 h -1.916851 v -0.41876 h 1.916851 z"
         style="font-weight:bold;font-family:'Courier New';-inkscape-font-specification:'Courier New Bold';stroke-width:0.0439139"
         id="path12119" />
      <path
         d="m 68.107559,215.99061 h -1.916851 v -0.41876 h 1.916851 z"
         style="font-weight:bold;font-family:'Courier New';-inkscape-font-specification:'Courier New Bold';stroke-width:0.0439139"
         id="path12121" />
      <path
         d="m 70.129657,214.62687 v 2.73196 q 0,0.23512 -0.0112,0.27991 -0.01791,0.0672 -0.08061,0.1142 -0.06046,0.047 -0.136598,0.047 -0.07838,0 -0.141077,-0.047 -0.06046,-0.047 -0.07838,-0.11868 -0.0112,-0.0403 -0.0112,-0.27543 v -2.73196 q 0,-0.23513 0.0112,-0.27992 0.01792,-0.0672 0.07838,-0.1142 0.0627,-0.047 0.141077,-0.047 0.07614,0 0.136598,0.047 0.0627,0.047 0.08061,0.11644 0.0112,0.0448 0.0112,0.27768 z"
         style="font-weight:bold;font-family:'Courier New';-inkscape-font-specification:'Courier New Bold';stroke-width:0.0439139"
         id="path12123" />
      <path
         d="m 73.611786,215.99061 h -1.916851 v -0.41876 h 1.916851 z"
         style="font-weight:bold;font-family:'Courier New';-inkscape-font-specification:'Courier New Bold';stroke-width:0.0439139"
         id="path12125" />
      <path
         d="m 76.363903,215.99061 h -1.916851 v -0.41876 h 1.916851 z"
         style="font-weight:bold;font-family:'Courier New';-inkscape-font-specification:'Courier New Bold';stroke-width:0.0439139"
         id="path12127" />
      <path
         d="m 79.116016,215.99061 h -1.916851 v -0.41876 h 1.916851 z"
         style="font-weight:bold;font-family:'Courier New';-inkscape-font-specification:'Courier New Bold';stroke-width:0.0439139"
         id="path12129" />
      <path
         d="m 81.86813,215.99061 h -1.916851 v -0.41876 h 1.916851 z"
         style="font-weight:bold;font-family:'Courier New';-inkscape-font-specification:'Courier New Bold';stroke-width:0.0439139"
         id="path12131" />
      <path
         d="m 83.890227,214.62687 v 2.73196 q 0,0.23512 -0.0112,0.27991 -0.01792,0.0672 -0.08061,0.1142 -0.06046,0.047 -0.136599,0.047 -0.07837,0 -0.141076,-0.047 -0.06046,-0.047 -0.07838,-0.11868 -0.0112,-0.0403 -0.0112,-0.27543 v -2.73196 q 0,-0.23513 0.0112,-0.27992 0.01791,-0.0672 0.07838,-0.1142 0.0627,-0.047 0.141076,-0.047 0.07614,0 0.136599,0.047 0.0627,0.047 0.08061,0.11644 0.0112,0.0448 0.0112,0.27768 z"
         style="font-weight:bold;font-family:'Courier New';-inkscape-font-specification:'Courier New Bold';stroke-width:0.0439139"
         id="path12133" />
      <path
         d="m 87.372356,215.99061 h -1.916851 v -0.41876 h 1.916851 z"
         style="font-weight:bold;font-family:'Courier New';-inkscape-font-specification:'Courier New Bold';stroke-width:0.0439139"
         id="path12135" />
      <path
         d="m 90.12447,215.99061 h -1.916851 v -0.41876 h 1.916851 z"
         style="font-weight:bold;font-family:'Courier New';-inkscape-font-specification:'Courier New Bold';stroke-width:0.0439139"
         id="path12137" />
      <path
         d="m 92.876583,215.99061 h -1.916851 v -0.41876 h 1.916851 z"
         style="font-weight:bold;font-family:'Courier New';-inkscape-font-specification:'Courier New Bold';stroke-width:0.0439139"
         id="path12139" />
      <path
         d="m 95.628696,215.99061 h -1.91685 v -0.41876 h 1.91685 z"
         style="font-weight:bold;font-family:'Courier New';-inkscape-font-specification:'Courier New Bold';stroke-width:0.0439139"
         id="path12141" />
      <path
         d="m 97.650794,214.62687 v 2.73196 q 0,0.23512 -0.0112,0.27991 -0.01791,0.0672 -0.08061,0.1142 -0.06046,0.047 -0.136598,0.047 -0.07838,0 -0.141076,-0.047 -0.06046,-0.047 -0.07838,-0.11868 -0.0112,-0.0403 -0.0112,-0.27543 v -2.73196 q 0,-0.23513 0.0112,-0.27992 0.01791,-0.0672 0.07838,-0.1142 0.0627,-0.047 0.141076,-0.047 0.07614,0 0.136598,0.047 0.0627,0.047 0.08061,0.11644 0.0112,0.0448 0.0112,0.27768 z"
         style="font-weight:bold;font-family:'Courier New';-inkscape-font-specification:'Courier New Bold';stroke-width:0.0439139"
         id="path12143" />
      <path
         d="m 101.13292,215.99061 h -1.916848 v -0.41876 h 1.916848 z"
         style="font-weight:bold;font-family:'Courier New';-inkscape-font-specification:'Courier New Bold';stroke-width:0.0439139"
         id="path12145" />
      <path
         d="m 103.88504,215.99061 h -1.91685 v -0.41876 h 1.91685 z"
         style="font-weight:bold;font-family:'Courier New';-inkscape-font-specification:'Courier New Bold';stroke-width:0.0439139"
         id="path12147" />
      <path
         d="m 106.63715,215.99061 h -1.91685 v -0.41876 h 1.91685 z"
         style="font-weight:bold;font-family:'Courier New';-inkscape-font-specification:'Courier New Bold';stroke-width:0.0439139"
         id="path12149" />
      <path
         d="m 109.38926,215.99061 h -1.91685 v -0.41876 h 1.91685 z"
         style="font-weight:bold;font-family:'Courier New';-inkscape-font-specification:'Courier New Bold';stroke-width:0.0439139"
         id="path12151" />
      <path
         d="m 111.41136,214.62687 v 2.73196 q 0,0.23512 -0.0112,0.27991 -0.0179,0.0672 -0.0806,0.1142 -0.0605,0.047 -0.1366,0.047 -0.0784,0 -0.14108,-0.047 -0.0605,-0.047 -0.0784,-0.11868 -0.0112,-0.0403 -0.0112,-0.27543 v -2.73196 q 0,-0.23513 0.0112,-0.27992 0.0179,-0.0672 0.0784,-0.1142 0.0627,-0.047 0.14108,-0.047 0.0761,0 0.1366,0.047 0.0627,0.047 0.0806,0.11644 0.0112,0.0448 0.0112,0.27768 z"
         style="font-weight:bold;font-family:'Courier New';-inkscape-font-specification:'Courier New Bold';stroke-width:0.0439139"
         id="path12153" />
      <path
         d="m 114.89349,215.99061 h -1.91685 v -0.41876 h 1.91685 z"
         style="font-weight:bold;font-family:'Courier New';-inkscape-font-specification:'Courier New Bold';stroke-width:0.0439139"
         id="path12155" />
      <path
         d="m 117.6456,215.99061 h -1.91685 v -0.41876 h 1.91685 z"
         style="font-weight:bold;font-family:'Courier New';-inkscape-font-specification:'Courier New Bold';stroke-width:0.0439139"
         id="path12157" />
      <path
         d="m 120.39772,215.99061 h -1.91685 v -0.41876 h 1.91685 z"
         style="font-weight:bold;font-family:'Courier New';-inkscape-font-specification:'Courier New Bold';stroke-width:0.0439139"
         id="path12159" />
      <path
         d="m 123.14984,215.99061 h -1.91685 v -0.41876 h 1.91685 z"
         style="font-weight:bold;font-family:'Courier New';-inkscape-font-specification:'Courier New Bold';stroke-width:0.0439139"
         id="path12161" />
      <path
         d="m 125.17194,214.62687 v 2.73196 q 0,0.23512 -0.0112,0.27991 -0.0179,0.0672 -0.0806,0.1142 -0.0605,0.047 -0.13659,0.047 -0.0784,0 -0.14108,-0.047 -0.0605,-0.047 -0.0784,-0.11868 -0.0112,-0.0403 -0.0112,-0.27543 v -2.73196 q 0,-0.23513 0.0112,-0.27992 0.0179,-0.0672 0.0784,-0.1142 0.0627,-0.047 0.14108,-0.047 0.0761,0 0.13659,0.047 0.0627,0.047 0.0806,0.11644 0.0112,0.0448 0.0112,0.27768 z"
         style="font-weight:bold;font-family:'Courier New';-inkscape-font-specification:'Courier New Bold';stroke-width:0.0439139"
         id="path12163" />
      <path
         d="m 128.65406,215.99061 h -1.91685 v -0.41876 h 1.91685 z"
         style="font-weight:bold;font-family:'Courier New';-inkscape-font-specification:'Courier New Bold';stroke-width:0.0439139"
         id="path12165" />
      <path
         d="m 131.40618,215.99061 h -1.91685 v -0.41876 h 1.91685 z"
         style="font-weight:bold;font-family:'Courier New';-inkscape-font-specification:'Courier New Bold';stroke-width:0.0439139"
         id="path12167" />
      <path
         d="m 15.087379,219.27211 v 2.73196 q 0,0.23512 -0.0112,0.27991 -0.01792,0.0672 -0.08061,0.11421 -0.06046,0.047 -0.136598,0.047 -0.07838,0 -0.141077,-0.047 -0.06046,-0.047 -0.07838,-0.11869 -0.0112,-0.0403 -0.0112,-0.27543 v -2.73196 q 0,-0.23513 0.0112,-0.27992 0.01792,-0.0672 0.07838,-0.1142 0.0627,-0.047 0.141077,-0.047 0.07614,0 0.136598,0.047 0.0627,0.047 0.08061,0.11644 0.0112,0.0448 0.0112,0.27768 z"
         style="font-weight:bold;font-family:'Courier New';-inkscape-font-specification:'Courier New Bold';stroke-width:0.0439139"
         id="path12169" />
      <path
         d="m 28.847949,219.27211 v 2.73196 q 0,0.23512 -0.0112,0.27991 -0.01791,0.0672 -0.08062,0.11421 -0.06046,0.047 -0.136598,0.047 -0.07838,0 -0.141076,-0.047 -0.06046,-0.047 -0.07838,-0.11869 -0.0112,-0.0403 -0.0112,-0.27543 v -2.73196 q 0,-0.23513 0.0112,-0.27992 0.01791,-0.0672 0.07838,-0.1142 0.0627,-0.047 0.141076,-0.047 0.07614,0 0.136598,0.047 0.0627,0.047 0.08062,0.11644 0.0112,0.0448 0.0112,0.27768 z"
         style="font-weight:bold;font-family:'Courier New';-inkscape-font-specification:'Courier New Bold';stroke-width:0.0439139"
         id="path12171" />
      <path
         d="m 42.60852,219.27211 v 2.73196 q 0,0.23512 -0.0112,0.27991 -0.01792,0.0672 -0.08062,0.11421 -0.06046,0.047 -0.136598,0.047 -0.07838,0 -0.141077,-0.047 -0.06046,-0.047 -0.07838,-0.11869 -0.0112,-0.0403 -0.0112,-0.27543 v -2.73196 q 0,-0.23513 0.0112,-0.27992 0.01792,-0.0672 0.07838,-0.1142 0.0627,-0.047 0.141077,-0.047 0.07614,0 0.136598,0.047 0.0627,0.047 0.08062,0.11644 0.0112,0.0448 0.0112,0.27768 z"
         style="font-weight:bold;font-family:'Courier New';-inkscape-font-specification:'Courier New Bold';stroke-width:0.0439139"
         id="path12173" />
      <path
         d="m 56.369086,219.27211 v 2.73196 q 0,0.23512 -0.0112,0.27991 -0.01791,0.0672 -0.08062,0.11421 -0.06046,0.047 -0.136598,0.047 -0.07838,0 -0.141076,-0.047 -0.06046,-0.047 -0.07838,-0.11869 -0.0112,-0.0403 -0.0112,-0.27543 v -2.73196 q 0,-0.23513 0.0112,-0.27992 0.01791,-0.0672 0.07838,-0.1142 0.0627,-0.047 0.141076,-0.047 0.07614,0 0.136598,0.047 0.0627,0.047 0.08062,0.11644 0.0112,0.0448 0.0112,0.27768 z"
         style="font-weight:bold;font-family:'Courier New';-inkscape-font-specification:'Courier New Bold';stroke-width:0.0439139"
         id="path12175" />
      <path
         d="m 70.129657,219.27211 v 2.73196 q 0,0.23512 -0.0112,0.27991 -0.01791,0.0672 -0.08061,0.11421 -0.06046,0.047 -0.136598,0.047 -0.07838,0 -0.141077,-0.047 -0.06046,-0.047 -0.07838,-0.11869 -0.0112,-0.0403 -0.0112,-0.27543 v -2.73196 q 0,-0.23513 0.0112,-0.27992 0.01792,-0.0672 0.07838,-0.1142 0.0627,-0.047 0.141077,-0.047 0.07614,0 0.136598,0.047 0.0627,0.047 0.08061,0.11644 0.0112,0.0448 0.0112,0.27768 z"
         style="font-weight:bold;font-family:'Courier New';-inkscape-font-specification:'Courier New Bold';stroke-width:0.0439139"
         id="path12177" />
      <path
         d="m 83.890227,219.27211 v 2.73196 q 0,0.23512 -0.0112,0.27991 -0.01792,0.0672 -0.08061,0.11421 -0.06046,0.047 -0.136599,0.047 -0.07837,0 -0.141076,-0.047 -0.06046,-0.047 -0.07838,-0.11869 -0.0112,-0.0403 -0.0112,-0.27543 v -2.73196 q 0,-0.23513 0.0112,-0.27992 0.01791,-0.0672 0.07838,-0.1142 0.0627,-0.047 0.141076,-0.047 0.07614,0 0.136599,0.047 0.0627,0.047 0.08061,0.11644 0.0112,0.0448 0.0112,0.27768 z"
         style="font-weight:bold;font-family:'Courier New';-inkscape-font-specification:'Courier New Bold';stroke-width:0.0439139"
         id="path12179" />
      <path
         d="m 97.650794,219.27211 v 2.73196 q 0,0.23512 -0.0112,0.27991 -0.01791,0.0672 -0.08061,0.11421 -0.06046,0.047 -0.136598,0.047 -0.07838,0 -0.141076,-0.047 -0.06046,-0.047 -0.07838,-0.11869 -0.0112,-0.0403 -0.0112,-0.27543 v -2.73196 q 0,-0.23513 0.0112,-0.27992 0.01791,-0.0672 0.07838,-0.1142 0.0627,-0.047 0.141076,-0.047 0.07614,0 0.136598,0.047 0.0627,0.047 0.08061,0.11644 0.0112,0.0448 0.0112,0.27768 z"
         style="font-weight:bold;font-family:'Courier New';-inkscape-font-specification:'Courier New Bold';stroke-width:0.0439139"
         id="path12181" />
      <path
         d="m 111.41136,219.27211 v 2.73196 q 0,0.23512 -0.0112,0.27991 -0.0179,0.0672 -0.0806,0.11421 -0.0605,0.047 -0.1366,0.047 -0.0784,0 -0.14108,-0.047 -0.0605,-0.047 -0.0784,-0.11869 -0.0112,-0.0403 -0.0112,-0.27543 v -2.73196 q 0,-0.23513 0.0112,-0.27992 0.0179,-0.0672 0.0784,-0.1142 0.0627,-0.047 0.14108,-0.047 0.0761,0 0.1366,0.047 0.0627,0.047 0.0806,0.11644 0.0112,0.0448 0.0112,0.27768 z"
         style="font-weight:bold;font-family:'Courier New';-inkscape-font-specification:'Courier New Bold';stroke-width:0.0439139"
         id="path12183" />
      <path
         d="m 125.17194,219.27211 v 2.73196 q 0,0.23512 -0.0112,0.27991 -0.0179,0.0672 -0.0806,0.11421 -0.0605,0.047 -0.13659,0.047 -0.0784,0 -0.14108,-0.047 -0.0605,-0.047 -0.0784,-0.11869 -0.0112,-0.0403 -0.0112,-0.27543 v -2.73196 q 0,-0.23513 0.0112,-0.27992 0.0179,-0.0672 0.0784,-0.1142 0.0627,-0.047 0.14108,-0.047 0.0761,0 0.13659,0.047 0.0627,0.047 0.0806,0.11644 0.0112,0.0448 0.0112,0.27768 z"
         style="font-weight:bold;font-family:'Courier New';-inkscape-font-specification:'Courier New Bold';stroke-width:0.0439139"
         id="path12185" />
      <path
         d="m 13.049606,223.52995 -1.471228,3.17086 q -0.05598,0.11869 -0.100769,0.15451 -0.05822,0.047 -0.141076,0.047 -0.09405,0 -0.16347,-0.0672 -0.06718,-0.0672 -0.06718,-0.15227 0,-0.0605 0.05374,-0.17691 l 1.475706,-3.16862 q 0.05598,-0.11869 0.09853,-0.15452 0.06046,-0.047 0.141077,-0.047 0.09405,0 0.16123,0.0672 0.06718,0.0649 0.06718,0.15003 0,0.0605 -0.05374,0.17691 z"
         style="font-weight:bold;font-family:'Courier New';-inkscape-font-specification:'Courier New Bold';stroke-width:0.0439139"
         id="path12187" />
      <path
         d="m 15.80172,223.52995 -1.471228,3.17086 q -0.05598,0.11869 -0.100769,0.15451 -0.05822,0.047 -0.141077,0.047 -0.09405,0 -0.163469,-0.0672 -0.06718,-0.0672 -0.06718,-0.15227 0,-0.0605 0.05374,-0.17691 l 1.475706,-3.16862 q 0.05598,-0.11869 0.09853,-0.15452 0.06046,-0.047 0.141077,-0.047 0.09405,0 0.16123,0.0672 0.06718,0.0649 0.06718,0.15003 0,0.0605 -0.05374,0.17691 z"
         style="font-weight:bold;font-family:'Courier New';-inkscape-font-specification:'Courier New Bold';stroke-width:0.0439139"
         id="path12189" />
      <path
         d="m 26.810176,223.52995 -1.471228,3.17086 q -0.05598,0.11869 -0.100769,0.15451 -0.05822,0.047 -0.141076,0.047 -0.09405,0 -0.16347,-0.0672 -0.06718,-0.0672 -0.06718,-0.15227 0,-0.0605 0.05374,-0.17691 l 1.475706,-3.16862 q 0.05598,-0.11869 0.09853,-0.15452 0.06046,-0.047 0.141077,-0.047 0.09405,0 0.16123,0.0672 0.06718,0.0649 0.06718,0.15003 0,0.0605 -0.05374,0.17691 z"
         style="font-weight:bold;font-family:'Courier New';-inkscape-font-specification:'Courier New Bold';stroke-width:0.0439139"
         id="path12191" />
      <path
         d="m 29.562289,223.52995 -1.471227,3.17086 q -0.05598,0.11869 -0.100769,0.15451 -0.05822,0.047 -0.141077,0.047 -0.09405,0 -0.16347,-0.0672 -0.06718,-0.0672 -0.06718,-0.15227 0,-0.0605 0.05374,-0.17691 l 1.475707,-3.16862 q 0.05598,-0.11869 0.09853,-0.15452 0.06046,-0.047 0.141077,-0.047 0.09405,0 0.161231,0.0672 0.06718,0.0649 0.06718,0.15003 0,0.0605 -0.05374,0.17691 z"
         style="font-weight:bold;font-family:'Courier New';-inkscape-font-specification:'Courier New Bold';stroke-width:0.0439139"
         id="path12193" />
      <path
         d="m 40.570745,223.52995 -1.471228,3.17086 q -0.05598,0.11869 -0.100769,0.15451 -0.05822,0.047 -0.141077,0.047 -0.09405,0 -0.163469,-0.0672 -0.06718,-0.0672 -0.06718,-0.15227 0,-0.0605 0.05374,-0.17691 l 1.475706,-3.16862 q 0.05598,-0.11869 0.09853,-0.15452 0.06046,-0.047 0.141076,-0.047 0.09405,0 0.161231,0.0672 0.06718,0.0649 0.06718,0.15003 0,0.0605 -0.05374,0.17691 z"
         style="font-weight:bold;font-family:'Courier New';-inkscape-font-specification:'Courier New Bold';stroke-width:0.0439139"
         id="path12195" />
      <path
         d="m 44.603746,223.33737 1.473467,3.15743 q 0.0112,0.0246 0.03807,0.1142 0.01344,0.0515 0.01344,0.0784 0,0.0806 -0.06494,0.14107 -0.0627,0.0605 -0.156752,0.0605 -0.08733,0 -0.138837,-0.0403 -0.0515,-0.0403 -0.107487,-0.15676 l -1.471228,-3.15966 q -0.05598,-0.11869 -0.05598,-0.17691 0,-0.0851 0.06718,-0.15227 0.06942,-0.0672 0.161231,-0.0672 0.08285,0 0.134359,0.0403 0.0515,0.0403 0.107487,0.16123 z"
         style="font-weight:bold;font-family:'Courier New';-inkscape-font-specification:'Courier New Bold';stroke-width:0.0439139"
         id="path12197" />
      <path
         d="m 54.331313,223.52995 -1.471227,3.17086 q -0.05598,0.11869 -0.100769,0.15451 -0.05822,0.047 -0.141077,0.047 -0.09405,0 -0.16347,-0.0672 -0.06718,-0.0672 -0.06718,-0.15227 0,-0.0605 0.05374,-0.17691 l 1.475707,-3.16862 q 0.05598,-0.11869 0.09853,-0.15452 0.06046,-0.047 0.141077,-0.047 0.09405,0 0.16123,0.0672 0.06718,0.0649 0.06718,0.15003 0,0.0605 -0.05374,0.17691 z"
         style="font-weight:bold;font-family:'Courier New';-inkscape-font-specification:'Courier New Bold';stroke-width:0.0439139"
         id="path12199" />
      <path
         d="m 58.364312,223.33737 1.473467,3.15743 q 0.0112,0.0246 0.03807,0.1142 0.01344,0.0515 0.01344,0.0784 0,0.0806 -0.06494,0.14107 -0.0627,0.0605 -0.156751,0.0605 -0.08733,0 -0.138838,-0.0403 -0.0515,-0.0403 -0.107487,-0.15676 l -1.471227,-3.15966 q -0.05598,-0.11869 -0.05598,-0.17691 0,-0.0851 0.06718,-0.15227 0.06942,-0.0672 0.161231,-0.0672 0.08285,0 0.134358,0.0403 0.0515,0.0403 0.107487,0.16123 z"
         style="font-weight:bold;font-family:'Courier New';-inkscape-font-specification:'Courier New Bold';stroke-width:0.0439139"
         id="path12201" />
      <path
         d="m 68.091884,223.52995 -1.471228,3.17086 q -0.05598,0.11869 -0.100769,0.15451 -0.05822,0.047 -0.141077,0.047 -0.09405,0 -0.163469,-0.0672 -0.06718,-0.0672 -0.06718,-0.15227 0,-0.0605 0.05374,-0.17691 l 1.475706,-3.16862 q 0.05598,-0.11869 0.09853,-0.15452 0.06046,-0.047 0.141076,-0.047 0.09405,0 0.161231,0.0672 0.06718,0.0649 0.06718,0.15003 0,0.0605 -0.05374,0.17691 z"
         style="font-weight:bold;font-family:'Courier New';-inkscape-font-specification:'Courier New Bold';stroke-width:0.0439139"
         id="path12203" />
      <path
         d="m 72.124883,223.33737 1.473467,3.15743 q 0.0112,0.0246 0.03807,0.1142 0.01344,0.0515 0.01344,0.0784 0,0.0806 -0.06494,0.14107 -0.0627,0.0605 -0.156752,0.0605 -0.08733,0 -0.138837,-0.0403 -0.0515,-0.0403 -0.107487,-0.15676 l -1.471228,-3.15966 q -0.05598,-0.11869 -0.05598,-0.17691 0,-0.0851 0.06718,-0.15227 0.06942,-0.0672 0.16123,-0.0672 0.08285,0 0.134359,0.0403 0.0515,0.0403 0.107487,0.16123 z"
         style="font-weight:bold;font-family:'Courier New';-inkscape-font-specification:'Courier New Bold';stroke-width:0.0439139"
         id="path12205" />
      <path
         d="m 83.13334,223.33737 1.473467,3.15743 q 0.0112,0.0246 0.03807,0.1142 0.01344,0.0515 0.01344,0.0784 0,0.0806 -0.06494,0.14107 -0.0627,0.0605 -0.156752,0.0605 -0.08733,0 -0.138837,-0.0403 -0.0515,-0.0403 -0.107487,-0.15676 l -1.471228,-3.15966 q -0.05598,-0.11869 -0.05598,-0.17691 0,-0.0851 0.06718,-0.15227 0.06942,-0.0672 0.16123,-0.0672 0.08286,0 0.134359,0.0403 0.0515,0.0403 0.107487,0.16123 z"
         style="font-weight:bold;font-family:'Courier New';-inkscape-font-specification:'Courier New Bold';stroke-width:0.0439139"
         id="path12207" />
      <path
         d="m 85.885453,223.33737 1.473467,3.15743 q 0.0112,0.0246 0.03807,0.1142 0.01344,0.0515 0.01344,0.0784 0,0.0806 -0.06494,0.14107 -0.0627,0.0605 -0.156751,0.0605 -0.08733,0 -0.138838,-0.0403 -0.0515,-0.0403 -0.107487,-0.15676 l -1.471227,-3.15966 q -0.05598,-0.11869 -0.05598,-0.17691 0,-0.0851 0.06718,-0.15227 0.06942,-0.0672 0.161231,-0.0672 0.08285,0 0.134358,0.0403 0.0515,0.0403 0.107487,0.16123 z"
         style="font-weight:bold;font-family:'Courier New';-inkscape-font-specification:'Courier New Bold';stroke-width:0.0439139"
         id="path12209" />
      <path
         d="m 96.893907,223.33737 1.473467,3.15743 q 0.0112,0.0246 0.03807,0.1142 0.01344,0.0515 0.01344,0.0784 0,0.0806 -0.06494,0.14107 -0.0627,0.0605 -0.156752,0.0605 -0.08733,0 -0.138837,-0.0403 -0.0515,-0.0403 -0.107487,-0.15676 l -1.471228,-3.15966 q -0.05598,-0.11869 -0.05598,-0.17691 0,-0.0851 0.06718,-0.15227 0.06942,-0.0672 0.16123,-0.0672 0.08285,0 0.134359,0.0403 0.0515,0.0403 0.107487,0.16123 z"
         style="font-weight:bold;font-family:'Courier New';-inkscape-font-specification:'Courier New Bold';stroke-width:0.0439139"
         id="path12211" />
      <path
         d="m 99.64602,223.33737 1.47347,3.15743 q 0.0112,0.0246 0.0381,0.1142 0.0134,0.0515 0.0134,0.0784 0,0.0806 -0.0649,0.14107 -0.0627,0.0605 -0.15675,0.0605 -0.0873,0 -0.13884,-0.0403 -0.0515,-0.0403 -0.10748,-0.15676 l -1.471233,-3.15966 q -0.05598,-0.11869 -0.05598,-0.17691 0,-0.0851 0.06718,-0.15227 0.06942,-0.0672 0.16123,-0.0672 0.08286,0 0.134359,0.0403 0.0515,0.0403 0.107487,0.16123 z"
         style="font-weight:bold;font-family:'Courier New';-inkscape-font-specification:'Courier New Bold';stroke-width:0.0439139"
         id="path12213" />
      <path
         d="m 109.37359,223.52995 -1.47123,3.17086 q -0.056,0.11869 -0.10077,0.15451 -0.0582,0.047 -0.14108,0.047 -0.094,0 -0.16347,-0.0672 -0.0672,-0.0672 -0.0672,-0.15227 0,-0.0605 0.0537,-0.17691 l 1.47571,-3.16862 q 0.056,-0.11869 0.0985,-0.15452 0.0605,-0.047 0.14108,-0.047 0.094,0 0.16123,0.0672 0.0672,0.0649 0.0672,0.15003 0,0.0605 -0.0537,0.17691 z"
         style="font-weight:bold;font-family:'Courier New';-inkscape-font-specification:'Courier New Bold';stroke-width:0.0439139"
         id="path12215" />
      <path
         d="m 113.40659,223.33737 1.47346,3.15743 q 0.0112,0.0246 0.0381,0.1142 0.0134,0.0515 0.0134,0.0784 0,0.0806 -0.0649,0.14107 -0.0627,0.0605 -0.15675,0.0605 -0.0873,0 -0.13884,-0.0403 -0.0515,-0.0403 -0.10749,-0.15676 l -1.47123,-3.15966 q -0.056,-0.11869 -0.056,-0.17691 0,-0.0851 0.0672,-0.15227 0.0694,-0.0672 0.16123,-0.0672 0.0829,0 0.13436,0.0403 0.0515,0.0403 0.10749,0.16123 z"
         style="font-weight:bold;font-family:'Courier New';-inkscape-font-specification:'Courier New Bold';stroke-width:0.0439139"
         id="path12217" />
      <path
         d="m 122.41982,223.91735 v 2.73196 q 0,0.23513 -0.0112,0.27991 -0.0179,0.0672 -0.0806,0.11421 -0.0605,0.047 -0.1366,0.047 -0.0784,0 -0.14107,-0.047 -0.0605,-0.047 -0.0784,-0.11869 -0.0112,-0.0403 -0.0112,-0.27543 v -2.73196 q 0,-0.23513 0.0112,-0.27992 0.0179,-0.0672 0.0784,-0.1142 0.0627,-0.047 0.14107,-0.047 0.0761,0 0.1366,0.047 0.0627,0.047 0.0806,0.11644 0.0112,0.0448 0.0112,0.27768 z"
         style="font-weight:bold;font-family:'Courier New';-inkscape-font-specification:'Courier New Bold';stroke-width:0.0439139"
         id="path12219" />
      <path
         d="m 127.92405,223.91735 v 2.73196 q 0,0.23513 -0.0112,0.27991 -0.0179,0.0672 -0.0806,0.11421 -0.0605,0.047 -0.1366,0.047 -0.0784,0 -0.14108,-0.047 -0.0605,-0.047 -0.0784,-0.11869 -0.0112,-0.0403 -0.0112,-0.27543 v -2.73196 q 0,-0.23513 0.0112,-0.27992 0.0179,-0.0672 0.0784,-0.1142 0.0627,-0.047 0.14108,-0.047 0.0761,0 0.1366,0.047 0.0627,0.047 0.0806,0.11644 0.0112,0.0448 0.0112,0.27768 z"
         style="font-weight:bold;font-family:'Courier New';-inkscape-font-specification:'Courier New Bold';stroke-width:0.0439139"
         id="path12221" />
      <path
         d="m 10.297492,228.17519 -1.4712275,3.17086 q -0.055983,0.11869 -0.1007691,0.15452 -0.058222,0.047 -0.1410766,0.047 -0.094051,0 -0.1634697,-0.0672 -0.067179,-0.0672 -0.067179,-0.15227 0,-0.0605 0.053743,-0.17691 l 1.4757063,-3.16862 q 0.055983,-0.11869 0.09853,-0.15452 0.060462,-0.047 0.1410766,-0.047 0.09405,0 0.16123,0.0672 0.06718,0.0649 0.06718,0.15003 0,0.0605 -0.05374,0.17691 z"
         style="font-weight:bold;font-family:'Courier New';-inkscape-font-specification:'Courier New Bold';stroke-width:0.0439139"
         id="path12223" />
      <path
         d="m 14.330492,227.98261 1.473467,3.15743 q 0.0112,0.0246 0.03807,0.1142 0.01344,0.0515 0.01344,0.0784 0,0.0806 -0.06494,0.14107 -0.0627,0.0605 -0.156752,0.0605 -0.08733,0 -0.138837,-0.0403 -0.0515,-0.0403 -0.107487,-0.15675 l -1.471228,-3.15967 q -0.05598,-0.11869 -0.05598,-0.17691 0,-0.0851 0.06718,-0.15227 0.06942,-0.0672 0.16123,-0.0672 0.08285,0 0.134359,0.0403 0.0515,0.0403 0.107487,0.16123 z"
         style="font-weight:bold;font-family:'Courier New';-inkscape-font-specification:'Courier New Bold';stroke-width:0.0439139"
         id="path12225" />
      <path
         d="m 25.338948,227.98261 1.473467,3.15743 q 0.0112,0.0246 0.03807,0.1142 0.01344,0.0515 0.01344,0.0784 0,0.0806 -0.06494,0.14107 -0.0627,0.0605 -0.156751,0.0605 -0.08733,0 -0.138838,-0.0403 -0.0515,-0.0403 -0.107487,-0.15675 l -1.471227,-3.15967 q -0.05598,-0.11869 -0.05598,-0.17691 0,-0.0851 0.06718,-0.15227 0.06942,-0.0672 0.161231,-0.0672 0.08285,0 0.134358,0.0403 0.0515,0.0403 0.107487,0.16123 z"
         style="font-weight:bold;font-family:'Courier New';-inkscape-font-specification:'Courier New Bold';stroke-width:0.0439139"
         id="path12227" />
      <path
         d="m 28.091062,227.98261 1.473467,3.15743 q 0.0112,0.0246 0.03807,0.1142 0.01344,0.0515 0.01344,0.0784 0,0.0806 -0.06494,0.14107 -0.0627,0.0605 -0.156752,0.0605 -0.08733,0 -0.138837,-0.0403 -0.0515,-0.0403 -0.107487,-0.15675 l -1.471228,-3.15967 q -0.05598,-0.11869 -0.05598,-0.17691 0,-0.0851 0.06718,-0.15227 0.06942,-0.0672 0.16123,-0.0672 0.08286,0 0.134359,0.0403 0.0515,0.0403 0.107487,0.16123 z"
         style="font-weight:bold;font-family:'Courier New';-inkscape-font-specification:'Courier New Bold';stroke-width:0.0439139"
         id="path12229" />
      <path
         d="m 39.099517,227.98261 1.473467,3.15743 q 0.0112,0.0246 0.03807,0.1142 0.01344,0.0515 0.01344,0.0784 0,0.0806 -0.06494,0.14107 -0.0627,0.0605 -0.156752,0.0605 -0.08733,0 -0.138837,-0.0403 -0.0515,-0.0403 -0.107487,-0.15675 l -1.471228,-3.15967 q -0.05598,-0.11869 -0.05598,-0.17691 0,-0.0851 0.06718,-0.15227 0.06942,-0.0672 0.16123,-0.0672 0.08285,0 0.134359,0.0403 0.0515,0.0403 0.107487,0.16123 z"
         style="font-weight:bold;font-family:'Courier New';-inkscape-font-specification:'Courier New Bold';stroke-width:0.0439139"
         id="path12231" />
      <path
         d="m 47.355859,227.98261 1.473467,3.15743 q 0.0112,0.0246 0.03807,0.1142 0.01344,0.0515 0.01344,0.0784 0,0.0806 -0.06494,0.14107 -0.0627,0.0605 -0.156752,0.0605 -0.08733,0 -0.138837,-0.0403 -0.0515,-0.0403 -0.107487,-0.15675 l -1.471228,-3.15967 q -0.05598,-0.11869 -0.05598,-0.17691 0,-0.0851 0.06718,-0.15227 0.06942,-0.0672 0.16123,-0.0672 0.08286,0 0.134359,0.0403 0.0515,0.0403 0.107487,0.16123 z"
         style="font-weight:bold;font-family:'Courier New';-inkscape-font-specification:'Courier New Bold';stroke-width:0.0439139"
         id="path12233" />
      <path
         d="m 51.5792,228.17519 -1.471228,3.17086 q -0.05598,0.11869 -0.100769,0.15452 -0.05822,0.047 -0.141076,0.047 -0.09405,0 -0.16347,-0.0672 -0.06718,-0.0672 -0.06718,-0.15227 0,-0.0605 0.05374,-0.17691 l 1.475706,-3.16862 q 0.05598,-0.11869 0.09853,-0.15452 0.06046,-0.047 0.141077,-0.047 0.09405,0 0.16123,0.0672 0.06718,0.0649 0.06718,0.15003 0,0.0605 -0.05374,0.17691 z"
         style="font-weight:bold;font-family:'Courier New';-inkscape-font-specification:'Courier New Bold';stroke-width:0.0439139"
         id="path12235" />
      <path
         d="m 61.116426,227.98261 1.473467,3.15743 q 0.0112,0.0246 0.03807,0.1142 0.01344,0.0515 0.01344,0.0784 0,0.0806 -0.06494,0.14107 -0.0627,0.0605 -0.156752,0.0605 -0.08733,0 -0.138837,-0.0403 -0.0515,-0.0403 -0.107487,-0.15675 l -1.471228,-3.15967 q -0.05598,-0.11869 -0.05598,-0.17691 0,-0.0851 0.06718,-0.15227 0.06942,-0.0672 0.16123,-0.0672 0.08285,0 0.134359,0.0403 0.0515,0.0403 0.107487,0.16123 z"
         style="font-weight:bold;font-family:'Courier New';-inkscape-font-specification:'Courier New Bold';stroke-width:0.0439139"
         id="path12237" />
      <path
         d="m 65.339767,228.17519 -1.471228,3.17086 q -0.05598,0.11869 -0.100769,0.15452 -0.05822,0.047 -0.141077,0.047 -0.09405,0 -0.163469,-0.0672 -0.06718,-0.0672 -0.06718,-0.15227 0,-0.0605 0.05374,-0.17691 l 1.475706,-3.16862 q 0.05598,-0.11869 0.09853,-0.15452 0.06046,-0.047 0.141076,-0.047 0.09405,0 0.161231,0.0672 0.06718,0.0649 0.06718,0.15003 0,0.0605 -0.05374,0.17691 z"
         style="font-weight:bold;font-family:'Courier New';-inkscape-font-specification:'Courier New Bold';stroke-width:0.0439139"
         id="path12239" />
      <path
         d="m 73.59611,228.17519 -1.471227,3.17086 q -0.05598,0.11869 -0.100769,0.15452 -0.05822,0.047 -0.141077,0.047 -0.09405,0 -0.16347,-0.0672 -0.06718,-0.0672 -0.06718,-0.15227 0,-0.0605 0.05374,-0.17691 l 1.475706,-3.16862 q 0.05598,-0.11869 0.09853,-0.15452 0.06046,-0.047 0.141076,-0.047 0.09405,0 0.161231,0.0672 0.06718,0.0649 0.06718,0.15003 0,0.0605 -0.05374,0.17691 z"
         style="font-weight:bold;font-family:'Courier New';-inkscape-font-specification:'Courier New Bold';stroke-width:0.0439139"
         id="path12241" />
      <path
         d="m 84.604568,228.17519 -1.471228,3.17086 q -0.05598,0.11869 -0.100769,0.15452 -0.05822,0.047 -0.141077,0.047 -0.09405,0 -0.163469,-0.0672 -0.06718,-0.0672 -0.06718,-0.15227 0,-0.0605 0.05374,-0.17691 l 1.475706,-3.16862 q 0.05598,-0.11869 0.09853,-0.15452 0.06046,-0.047 0.141076,-0.047 0.09405,0 0.161231,0.0672 0.06718,0.0649 0.06718,0.15003 0,0.0605 -0.05374,0.17691 z"
         style="font-weight:bold;font-family:'Courier New';-inkscape-font-specification:'Courier New Bold';stroke-width:0.0439139"
         id="path12243" />
      <path
         d="m 87.356681,228.17519 -1.471228,3.17086 q -0.05598,0.11869 -0.100769,0.15452 -0.05822,0.047 -0.141076,0.047 -0.09405,0 -0.16347,-0.0672 -0.06718,-0.0672 -0.06718,-0.15227 0,-0.0605 0.05374,-0.17691 l 1.475706,-3.16862 q 0.05598,-0.11869 0.09853,-0.15452 0.06046,-0.047 0.141077,-0.047 0.09405,0 0.16123,0.0672 0.06718,0.0649 0.06718,0.15003 0,0.0605 -0.05374,0.17691 z"
         style="font-weight:bold;font-family:'Courier New';-inkscape-font-specification:'Courier New Bold';stroke-width:0.0439139"
         id="path12245" />
      <path
         d="m 98.365134,228.17519 -1.471227,3.17086 q -0.05598,0.11869 -0.100769,0.15452 -0.05822,0.047 -0.141077,0.047 -0.09405,0 -0.16347,-0.0672 -0.06718,-0.0672 -0.06718,-0.15227 0,-0.0605 0.05374,-0.17691 l 1.475707,-3.16862 q 0.05598,-0.11869 0.09853,-0.15452 0.06046,-0.047 0.141077,-0.047 0.09405,0 0.161231,0.0672 0.06718,0.0649 0.06718,0.15003 0,0.0605 -0.05374,0.17691 z"
         style="font-weight:bold;font-family:'Courier New';-inkscape-font-specification:'Courier New Bold';stroke-width:0.0439139"
         id="path12247" />
      <path
         d="m 102.39813,227.98261 1.47347,3.15743 q 0.0112,0.0246 0.0381,0.1142 0.0134,0.0515 0.0134,0.0784 0,0.0806 -0.0649,0.14107 -0.0627,0.0605 -0.15675,0.0605 -0.0873,0 -0.13883,-0.0403 -0.0515,-0.0403 -0.10749,-0.15675 l -1.47123,-3.15967 q -0.056,-0.11869 -0.056,-0.17691 0,-0.0851 0.0672,-0.15227 0.0694,-0.0672 0.16123,-0.0672 0.0829,0 0.13436,0.0403 0.0515,0.0403 0.10748,0.16123 z"
         style="font-weight:bold;font-family:'Courier New';-inkscape-font-specification:'Courier New Bold';stroke-width:0.0439139"
         id="path12249" />
      <path
         d="m 107.90236,227.98261 1.47347,3.15743 q 0.0112,0.0246 0.0381,0.1142 0.0134,0.0515 0.0134,0.0784 0,0.0806 -0.0649,0.14107 -0.0627,0.0605 -0.15675,0.0605 -0.0873,0 -0.13884,-0.0403 -0.0515,-0.0403 -0.10748,-0.15675 l -1.47123,-3.15967 q -0.056,-0.11869 -0.056,-0.17691 0,-0.0851 0.0672,-0.15227 0.0694,-0.0672 0.16123,-0.0672 0.0829,0 0.13436,0.0403 0.0515,0.0403 0.10749,0.16123 z"
         style="font-weight:bold;font-family:'Courier New';-inkscape-font-specification:'Courier New Bold';stroke-width:0.0439139"
         id="path12251" />
      <path
         d="m 114.87781,228.17519 -1.47122,3.17086 q -0.056,0.11869 -0.10077,0.15452 -0.0582,0.047 -0.14108,0.047 -0.094,0 -0.16347,-0.0672 -0.0672,-0.0672 -0.0672,-0.15227 0,-0.0605 0.0538,-0.17691 l 1.4757,-3.16862 q 0.056,-0.11869 0.0985,-0.15452 0.0605,-0.047 0.14108,-0.047 0.0941,0 0.16123,0.0672 0.0672,0.0649 0.0672,0.15003 0,0.0605 -0.0538,0.17691 z"
         style="font-weight:bold;font-family:'Courier New';-inkscape-font-specification:'Courier New Bold';stroke-width:0.0439139"
         id="path12253" />
      <path
         d="m 122.41982,228.56259 v 2.73196 q 0,0.23513 -0.0112,0.27991 -0.0179,0.0672 -0.0806,0.11421 -0.0605,0.047 -0.1366,0.047 -0.0784,0 -0.14107,-0.047 -0.0605,-0.047 -0.0784,-0.11869 -0.0112,-0.0403 -0.0112,-0.27543 v -2.73196 q 0,-0.23513 0.0112,-0.27992 0.0179,-0.0672 0.0784,-0.1142 0.0627,-0.047 0.14107,-0.047 0.0761,0 0.1366,0.047 0.0627,0.047 0.0806,0.11644 0.0112,0.0448 0.0112,0.27768 z"
         style="font-weight:bold;font-family:'Courier New';-inkscape-font-specification:'Courier New Bold';stroke-width:0.0439139"
         id="path12255" />
      <path
         d="m 127.92405,228.56259 v 2.73196 q 0,0.23513 -0.0112,0.27991 -0.0179,0.0672 -0.0806,0.11421 -0.0605,0.047 -0.1366,0.047 -0.0784,0 -0.14108,-0.047 -0.0605,-0.047 -0.0784,-0.11869 -0.0112,-0.0403 -0.0112,-0.27543 v -2.73196 q 0,-0.23513 0.0112,-0.27992 0.0179,-0.0672 0.0784,-0.1142 0.0627,-0.047 0.14108,-0.047 0.0761,0 0.1366,0.047 0.0627,0.047 0.0806,0.11644 0.0112,0.0448 0.0112,0.27768 z"
         style="font-weight:bold;font-family:'Courier New';-inkscape-font-specification:'Courier New Bold';stroke-width:0.0439139"
         id="path12257" />
    </g>
  </g>
</svg>
