<?xml version="1.0" encoding="UTF-8" standalone="no"?>
<!-- Created with Inkscape (http://www.inkscape.org/) -->

<svg
   width="478.16034"
   height="96.448738"
   viewBox="0 0 126.51326 25.518727"
   version="1.1"
   id="svg5"
   inkscape:version="1.1 (c68e22c387, 2021-05-23)"
   sodipodi:docname="title.svg"
   inkscape:export-filename="C:\Users\annar\code\myApps\phaser\ASCII_Platformer\assets\asciiRain.png"
   inkscape:export-xdpi="96"
   inkscape:export-ydpi="96"
   shape-rendering="crispEdges"
   xmlns:inkscape="http://www.inkscape.org/namespaces/inkscape"
   xmlns:sodipodi="http://sodipodi.sourceforge.net/DTD/sodipodi-0.dtd"
   xmlns="http://www.w3.org/2000/svg"
   xmlns:svg="http://www.w3.org/2000/svg">
  <sodipodi:namedview
     id="namedview7"
     pagecolor="#2a2a2a"
     bordercolor="#eeeeee"
     borderopacity="1"
     inkscape:pageshadow="0"
     inkscape:pageopacity="0"
     inkscape:pagecheckerboard="true"
     inkscape:document-units="px"
     showgrid="false"
     units="px"
     inkscape:snap-page="true"
     inkscape:zoom="3.7079612"
     inkscape:cx="239.08017"
     inkscape:cy="48.004817"
     inkscape:current-layer="layer1"
     fit-margin-top="2"
     fit-margin-left="2"
     fit-margin-right="2"
     fit-margin-bottom="2" />
  <defs
     id="defs2" />
  <g
     inkscape:label="Layer 1"
     inkscape:groupmode="layer"
     id="layer1"
     opacity="0"
     transform="translate(-79.64853,27.674888)">
    <animate
       attributeName="opacity"
       values="0;1"
       begin="0.25s"
       dur="1s" />
    <set
       attributeName="opacity"
       to="1"
       begin="1.25s" />
    <g
       aria-label="Txtaria [alpha]"
       id="text5196"
       style="font-weight:bold;font-size:4.5861px;line-height:1.1;font-family:'Courier New';-inkscape-font-specification:'Courier New Bold';fill:#ffffff;stroke:#ffffff;stroke-width:0.1;stroke-linecap:round;stroke-linejoin:round;stroke-opacity:0.984314">
      <path
         d="m 85.576665,-22.864167 h -2.52146 q -0.165708,0 -0.235127,-0.0627 -0.07166,-0.0627 -0.07166,-0.165708 0,-0.103008 0.07166,-0.167948 0.06942,-0.0627 0.235127,-0.0627 h 2.52146 q 0.163469,0 0.232887,0.0627 0.07166,0.06494 0.07166,0.167948 0,0.100768 -0.06942,0.163469 -0.06942,0.06494 -0.235127,0.06494 z"
         id="path1184" />
      <path
         d="m 88.328772,-22.864167 h -2.521459 q -0.165709,0 -0.235127,-0.0627 -0.07166,-0.0627 -0.07166,-0.165708 0,-0.103008 0.07166,-0.167948 0.06942,-0.0627 0.235127,-0.0627 h 2.521459 q 0.16347,0 0.232888,0.0627 0.07166,0.06494 0.07166,0.167948 0,0.100768 -0.06942,0.163469 -0.06942,0.06494 -0.235128,0.06494 z"
         id="path1186" />
      <path
         d="m 91.080881,-22.864167 h -2.52146 q -0.165708,0 -0.235127,-0.0627 -0.07166,-0.0627 -0.07166,-0.165708 0,-0.103008 0.07166,-0.167948 0.06942,-0.0627 0.235127,-0.0627 h 2.52146 q 0.163469,0 0.232887,0.0627 0.07166,0.06494 0.07166,0.167948 0,0.100768 -0.06942,0.163469 -0.06942,0.06494 -0.235127,0.06494 z"
         id="path1188" />
      <path
         d="m 93.832988,-22.864167 h -2.521459 q -0.165709,0 -0.235127,-0.0627 -0.07166,-0.0627 -0.07166,-0.165708 0,-0.103008 0.07166,-0.167948 0.06942,-0.0627 0.235127,-0.0627 h 2.521459 q 0.16347,0 0.232888,0.0627 0.07166,0.06494 0.07166,0.167948 0,0.100768 -0.06942,0.163469 -0.06942,0.06494 -0.235127,0.06494 z"
         id="path1190" />
      <path
         d="m 102.08931,-22.864167 h -2.521457 q -0.165709,0 -0.235128,-0.0627 -0.07166,-0.0627 -0.07166,-0.165708 0,-0.103008 0.07166,-0.167948 0.06942,-0.0627 0.235128,-0.0627 h 2.521457 q 0.16347,0 0.23289,0.0627 0.0717,0.06494 0.0717,0.167948 0,0.100768 -0.0694,0.163469 -0.0694,0.06494 -0.23513,0.06494 z"
         id="path1192" />
      <path
         d="m 104.84142,-22.864167 h -2.52146 q -0.16571,0 -0.23513,-0.0627 -0.0716,-0.0627 -0.0716,-0.165708 0,-0.103008 0.0716,-0.167948 0.0694,-0.0627 0.23513,-0.0627 h 2.52146 q 0.16347,0 0.23289,0.0627 0.0717,0.06494 0.0717,0.167948 0,0.100768 -0.0694,0.163469 -0.0694,0.06494 -0.23513,0.06494 z"
         id="path1194" />
      <path
         d="m 110.34563,-22.864167 h -2.52145 q -0.16571,0 -0.23513,-0.0627 -0.0717,-0.0627 -0.0717,-0.165708 0,-0.103008 0.0717,-0.167948 0.0694,-0.0627 0.23513,-0.0627 h 2.52145 q 0.16347,0 0.23289,0.0627 0.0717,0.06494 0.0717,0.167948 0,0.100768 -0.0694,0.163469 -0.0694,0.06494 -0.23513,0.06494 z"
         id="path1196" />
      <path
         d="m 113.09774,-22.864167 h -2.52146 q -0.16571,0 -0.23512,-0.0627 -0.0717,-0.0627 -0.0717,-0.165708 0,-0.103008 0.0717,-0.167948 0.0694,-0.0627 0.23512,-0.0627 h 2.52146 q 0.16347,0 0.23289,0.0627 0.0717,0.06494 0.0717,0.167948 0,0.100768 -0.0694,0.163469 -0.0694,0.06494 -0.23513,0.06494 z"
         id="path1198" />
      <path
         d="m 121.35407,-22.864167 h -2.52146 q -0.16571,0 -0.23513,-0.0627 -0.0717,-0.0627 -0.0717,-0.165708 0,-0.103008 0.0717,-0.167948 0.0694,-0.0627 0.23513,-0.0627 h 2.52146 q 0.16347,0 0.23289,0.0627 0.0716,0.06494 0.0716,0.167948 0,0.100768 -0.0694,0.163469 -0.0694,0.06494 -0.23512,0.06494 z"
         id="path1200" />
      <path
         d="m 124.10617,-22.864167 h -2.52146 q -0.16571,0 -0.23512,-0.0627 -0.0717,-0.0627 -0.0717,-0.165708 0,-0.103008 0.0717,-0.167948 0.0694,-0.0627 0.23512,-0.0627 h 2.52146 q 0.16347,0 0.23289,0.0627 0.0717,0.06494 0.0717,0.167948 0,0.100768 -0.0694,0.163469 -0.0694,0.06494 -0.23513,0.06494 z"
         id="path1202" />
      <path
         d="m 126.85828,-22.864167 h -2.52146 q -0.16571,0 -0.23512,-0.0627 -0.0717,-0.0627 -0.0717,-0.165708 0,-0.103008 0.0717,-0.167948 0.0694,-0.0627 0.23512,-0.0627 h 2.52146 q 0.16347,0 0.23289,0.0627 0.0717,0.06494 0.0717,0.167948 0,0.100768 -0.0694,0.163469 -0.0694,0.06494 -0.23513,0.06494 z"
         id="path1204" />
      <path
         d="m 129.61039,-22.864167 h -2.52146 q -0.16571,0 -0.23512,-0.0627 -0.0717,-0.0627 -0.0717,-0.165708 0,-0.103008 0.0717,-0.167948 0.0694,-0.0627 0.23512,-0.0627 h 2.52146 q 0.16347,0 0.23289,0.0627 0.0717,0.06494 0.0717,0.167948 0,0.100768 -0.0694,0.163469 -0.0694,0.06494 -0.23513,0.06494 z"
         id="path1206" />
      <path
         d="m 143.37093,-22.864167 h -2.52146 q -0.16571,0 -0.23513,-0.0627 -0.0717,-0.0627 -0.0717,-0.165708 0,-0.103008 0.0717,-0.167948 0.0694,-0.0627 0.23513,-0.0627 h 2.52146 q 0.16347,0 0.23289,0.0627 0.0716,0.06494 0.0716,0.167948 0,0.100768 -0.0694,0.163469 -0.0694,0.06494 -0.23513,0.06494 z"
         id="path1208" />
      <path
         d="m 154.37936,-22.864167 h -2.52146 q -0.16571,0 -0.23513,-0.0627 -0.0717,-0.0627 -0.0717,-0.165708 0,-0.103008 0.0717,-0.167948 0.0694,-0.0627 0.23513,-0.0627 h 2.52146 q 0.16347,0 0.23289,0.0627 0.0717,0.06494 0.0717,0.167948 0,0.100768 -0.0694,0.163469 -0.0694,0.06494 -0.23513,0.06494 z"
         id="path1210" />
      <path
         d="m 157.13147,-22.864167 h -2.52146 q -0.16571,0 -0.23512,-0.0627 -0.0717,-0.0627 -0.0717,-0.165708 0,-0.103008 0.0717,-0.167948 0.0694,-0.0627 0.23512,-0.0627 h 2.52146 q 0.16347,0 0.23289,0.0627 0.0717,0.06494 0.0717,0.167948 0,0.100768 -0.0694,0.163469 -0.0694,0.06494 -0.23513,0.06494 z"
         id="path1212" />
      <path
         d="m 159.88358,-22.864167 h -2.52146 q -0.16571,0 -0.23513,-0.0627 -0.0717,-0.0627 -0.0717,-0.165708 0,-0.103008 0.0717,-0.167948 0.0694,-0.0627 0.23513,-0.0627 h 2.52146 q 0.16347,0 0.23289,0.0627 0.0717,0.06494 0.0717,0.167948 0,0.100768 -0.0694,0.163469 -0.0694,0.06494 -0.23512,0.06494 z"
         id="path1214" />
      <path
         d="m 170.89201,-22.864167 h -2.52146 q -0.16571,0 -0.23513,-0.0627 -0.0717,-0.0627 -0.0717,-0.165708 0,-0.103008 0.0717,-0.167948 0.0694,-0.0627 0.23513,-0.0627 h 2.52146 q 0.16347,0 0.23289,0.0627 0.0717,0.06494 0.0717,0.167948 0,0.100768 -0.0694,0.163469 -0.0694,0.06494 -0.23513,0.06494 z"
         id="path1216" />
      <path
         d="m 181.90044,-22.864167 h -2.52146 q -0.16571,0 -0.23513,-0.0627 -0.0717,-0.0627 -0.0717,-0.165708 0,-0.103008 0.0717,-0.167948 0.0694,-0.0627 0.23513,-0.0627 h 2.52146 q 0.16347,0 0.23289,0.0627 0.0717,0.06494 0.0717,0.167948 0,0.100768 -0.0694,0.163469 -0.0694,0.06494 -0.23513,0.06494 z"
         id="path1218" />
      <path
         d="m 189.11101,-26.679946 v 2.696126 h 0.27767 q 0.16571,0 0.23513,0.0627 0.0717,0.0627 0.0717,0.165709 0,0.103008 -0.0717,0.165709 -0.0694,0.06494 -0.23513,0.06494 h -0.73673 v -3.614241 h 0.73449 q 0.16571,0 0.23513,0.06494 0.0717,0.0627 0.0717,0.165709 0,0.100769 -0.0717,0.165709 -0.0694,0.0627 -0.23513,0.0627 z"
         id="path1220" />
      <path
         d="m 192.05121,-24.241341 v -0.107486 q -0.17242,0.09181 -0.38068,0.136597 -0.20825,0.04703 -0.37844,0.04703 -0.36949,0 -0.60013,-0.19482 -0.23065,-0.197059 -0.23065,-0.434425 0,-0.288871 0.29335,-0.535195 0.29558,-0.248563 0.8151,-0.248563 0.20826,0 0.48145,0.04479 v -0.109726 q 0,-0.103008 -0.0896,-0.167948 -0.0873,-0.06494 -0.33589,-0.06494 -0.20378,0 -0.52848,0.08062 -0.12092,0.02911 -0.1881,0.02911 -0.0918,0 -0.15675,-0.06494 -0.0627,-0.06718 -0.0627,-0.170188 0,-0.05822 0.0224,-0.100768 0.0224,-0.04255 0.0627,-0.06718 0.0403,-0.02687 0.16795,-0.0627 0.17019,-0.04703 0.34709,-0.0739 0.17691,-0.02911 0.32022,-0.02911 0.42771,0 0.66284,0.185862 0.23736,0.183623 0.23736,0.503844 v 0.944987 h 0.0784 q 0.16571,0 0.23513,0.06494 0.0717,0.0627 0.0717,0.165709 0,0.100769 -0.0717,0.165709 -0.0694,0.0627 -0.23513,0.0627 z m 0,-0.821825 q -0.27543,-0.05374 -0.50832,-0.05374 -0.27991,0 -0.48145,0.136598 -0.1254,0.08733 -0.1254,0.176905 0,0.06494 0.0605,0.105248 0.11197,0.0739 0.30679,0.0739 0.1657,0 0.37396,-0.06494 0.2105,-0.06494 0.37396,-0.176905 z"
         id="path1222" />
      <path
         d="m 194.6197,-27.145721 v 2.445322 h 0.55087 q 0.16571,0 0.23513,0.06494 0.0717,0.0627 0.0717,0.165709 0,0.100769 -0.0717,0.165709 -0.0694,0.0627 -0.23513,0.0627 h -1.56079 q -0.16571,0 -0.23737,-0.0627 -0.0694,-0.06494 -0.0694,-0.167948 0,-0.100769 0.0694,-0.16347 0.0717,-0.06494 0.23737,-0.06494 h 0.55087 v -1.986265 h -0.36949 q -0.16347,0 -0.23513,-0.0627 -0.0717,-0.06494 -0.0717,-0.167948 0,-0.100769 0.0694,-0.16347 0.0717,-0.06494 0.23737,-0.06494 z"
         id="path1224" />
      <path
         d="m 196.57238,-24.494382 v 0.752407 h 0.27543 q 0.16571,0 0.23513,0.0627 0.0717,0.06494 0.0717,0.167948 0,0.100769 -0.0717,0.16347 -0.0694,0.06494 -0.23513,0.06494 h -0.81287 q -0.1657,0 -0.23736,-0.06494 -0.0694,-0.0627 -0.0694,-0.16347 0,-0.103008 0.0717,-0.167948 0.0717,-0.0627 0.23512,-0.0627 h 0.0784 v -2.073598 h -0.0784 q -0.1657,0 -0.23736,-0.0627 -0.0694,-0.06494 -0.0694,-0.167948 0,-0.100769 0.0694,-0.163469 0.0717,-0.06494 0.23736,-0.06494 h 0.53744 v 0.156751 q 0.16123,-0.109726 0.33365,-0.163469 0.17243,-0.05374 0.35382,-0.05374 0.47025,0 0.80167,0.32022 0.33141,0.317982 0.33141,0.730014 0,0.45458 -0.39187,0.750168 -0.32694,0.246324 -0.73674,0.246324 -0.1769,0 -0.34933,-0.0515 -0.17242,-0.0515 -0.34261,-0.154512 z m 1.3615,-0.788236 q 0,-0.09629 -0.0761,-0.244085 -0.0761,-0.150033 -0.23513,-0.248563 -0.15675,-0.100769 -0.36948,-0.100769 -0.34262,0 -0.54415,0.257521 -0.1366,0.176905 -0.1366,0.340374 0,0.183624 0.19482,0.358289 0.19706,0.172427 0.48593,0.172427 0.29111,0 0.48593,-0.172427 0.19482,-0.172426 0.19482,-0.362767 z"
         id="path1226" />
      <path
         d="m 199.42077,-27.145721 v 0.978577 q 0.14332,-0.08509 0.28887,-0.125402 0.1478,-0.04255 0.29783,-0.04255 0.23737,0 0.42323,0.08061 0.18586,0.08062 0.30679,0.255281 0.12316,0.172426 0.12316,0.436664 v 0.862133 q 0.17466,0 0.22841,0.03359 0.10748,0.06942 0.10748,0.197059 0,0.100769 -0.0694,0.165709 -0.0694,0.0627 -0.23513,0.0627 h -0.524 q -0.16347,0 -0.23513,-0.0627 -0.0694,-0.06494 -0.0694,-0.167948 0,-0.125401 0.10748,-0.19482 0.056,-0.03583 0.22841,-0.03359 v -0.830782 q 0,-0.176906 -0.0806,-0.248563 -0.10525,-0.09629 -0.31127,-0.09629 -0.15227,0 -0.27095,0.06046 -0.11645,0.05822 -0.31575,0.255281 v 0.859893 q 0.17691,0 0.22841,0.03359 0.10973,0.06942 0.10973,0.197059 0,0.100769 -0.0717,0.165709 -0.0694,0.0627 -0.23513,0.0627 h -0.52175 q -0.16571,0 -0.23737,-0.0627 -0.0694,-0.06494 -0.0694,-0.167948 0,-0.125401 0.10973,-0.19482 0.0537,-0.03583 0.22841,-0.03359 v -1.986265 h -0.0784 q -0.16571,0 -0.23737,-0.0627 -0.0694,-0.06494 -0.0694,-0.167948 0,-0.100769 0.0694,-0.16347 0.0717,-0.06494 0.23737,-0.06494 z"
         id="path1228" />
      <path
         d="m 203.05965,-24.241341 v -0.107486 q -0.17243,0.09181 -0.38069,0.136597 -0.20825,0.04703 -0.37844,0.04703 -0.36949,0 -0.60013,-0.19482 -0.23065,-0.197059 -0.23065,-0.434425 0,-0.288871 0.29335,-0.535195 0.29559,-0.248563 0.8151,-0.248563 0.20826,0 0.48146,0.04479 v -0.109726 q 0,-0.103008 -0.0896,-0.167948 -0.0873,-0.06494 -0.33589,-0.06494 -0.20378,0 -0.52848,0.08062 -0.12092,0.02911 -0.1881,0.02911 -0.0918,0 -0.15675,-0.06494 -0.0627,-0.06718 -0.0627,-0.170188 0,-0.05822 0.0224,-0.100768 0.0224,-0.04255 0.0627,-0.06718 0.0403,-0.02687 0.16795,-0.0627 0.17019,-0.04703 0.34709,-0.0739 0.17691,-0.02911 0.32022,-0.02911 0.42771,0 0.66284,0.185862 0.23736,0.183623 0.23736,0.503844 v 0.944987 h 0.0784 q 0.16571,0 0.23513,0.06494 0.0717,0.0627 0.0717,0.165709 0,0.100769 -0.0717,0.165709 -0.0694,0.0627 -0.23513,0.0627 z m 0,-0.821825 q -0.27544,-0.05374 -0.50833,-0.05374 -0.27991,0 -0.48145,0.136598 -0.1254,0.08733 -0.1254,0.176905 0,0.06494 0.0605,0.105248 0.11197,0.0739 0.30679,0.0739 0.16571,0 0.37396,-0.06494 0.2105,-0.06494 0.37397,-0.176905 z"
         id="path1230" />
      <path
         d="m 205.17356,-23.98382 v -2.696126 h -0.27768 q -0.16571,0 -0.23736,-0.0627 -0.0694,-0.06494 -0.0694,-0.165709 0,-0.103008 0.0694,-0.165709 0.0716,-0.06494 0.23736,-0.06494 h 0.73673 v 3.614241 h -0.73449 q -0.16571,0 -0.23737,-0.06494 -0.0694,-0.0627 -0.0694,-0.165709 0,-0.100769 0.0694,-0.165709 0.0717,-0.0627 0.23737,-0.0627 z"
         id="path1232" />
      <path
         d="m 81.785518,-21.65315 v 2.731954 q 0,0.235128 -0.0112,0.279914 -0.01792,0.06718 -0.08061,0.114204 -0.06046,0.04703 -0.136598,0.04703 -0.07838,0 -0.141076,-0.04703 -0.06046,-0.04703 -0.07838,-0.118683 -0.0112,-0.04031 -0.0112,-0.275435 v -2.731954 q 0,-0.235127 0.0112,-0.279913 0.01792,-0.06718 0.07838,-0.114205 0.0627,-0.04703 0.141076,-0.04703 0.07614,0 0.136598,0.04703 0.0627,0.04703 0.08061,0.116444 0.0112,0.04479 0.0112,0.277674 z"
         id="path1234" />
      <path
         d="m 85.576665,-17.819457 h -2.52146 q -0.165708,0 -0.235127,-0.0627 -0.07166,-0.0627 -0.07166,-0.165709 0,-0.103008 0.07166,-0.167948 0.06942,-0.0627 0.235127,-0.0627 h 2.52146 q 0.163469,0 0.232887,0.0627 0.07166,0.06494 0.07166,0.167948 0,0.100769 -0.06942,0.163469 -0.06942,0.06494 -0.235127,0.06494 z"
         id="path1236" />
      <path
         d="m 93.832988,-17.819457 h -2.521459 q -0.165709,0 -0.235127,-0.0627 -0.07166,-0.0627 -0.07166,-0.165709 0,-0.103008 0.07166,-0.167948 0.06942,-0.0627 0.235127,-0.0627 h 2.521459 q 0.16347,0 0.232888,0.0627 0.07166,0.06494 0.07166,0.167948 0,0.100769 -0.06942,0.163469 -0.06942,0.06494 -0.235127,0.06494 z"
         id="path1238" />
      <path
         d="m 95.546057,-21.65315 v 2.731954 q 0,0.235128 -0.0112,0.279914 -0.01792,0.06718 -0.08062,0.114204 -0.06046,0.04703 -0.136598,0.04703 -0.07838,0 -0.141076,-0.04703 -0.06046,-0.04703 -0.07838,-0.118683 -0.0112,-0.04031 -0.0112,-0.275435 v -2.731954 q 0,-0.235127 0.0112,-0.279913 0.01792,-0.06718 0.07838,-0.114205 0.0627,-0.04703 0.141076,-0.04703 0.07614,0 0.136598,0.04703 0.0627,0.04703 0.08062,0.116444 0.0112,0.04479 0.0112,0.277674 z"
         id="path1240" />
      <path
         d="m 100.29339,-22.23313 1.47346,3.157422 q 0.0112,0.02463 0.0381,0.114205 0.0134,0.0515 0.0134,0.07838 0,0.08062 -0.0649,0.141076 -0.0627,0.06046 -0.15676,0.06046 -0.0873,0 -0.13883,-0.04031 -0.0515,-0.04031 -0.10749,-0.156752 l -1.471224,-3.159662 q -0.05598,-0.118683 -0.05598,-0.176905 0,-0.08509 0.06718,-0.152273 0.06942,-0.06718 0.161227,-0.06718 0.0829,0 0.13436,0.04031 0.0515,0.04031 0.10749,0.16123 z"
         id="path1242" />
      <path
         d="m 106.3216,-19.866183 0.66508,-1.585429 h -0.10525 q -0.16571,0 -0.23737,-0.0627 -0.0694,-0.06494 -0.0694,-0.167948 0,-0.103008 0.0694,-0.165709 0.0717,-0.06494 0.23737,-0.06494 l 0.61581,0.0022 q 0.16571,0 0.23512,0.0627 0.0717,0.0627 0.0717,0.165709 0,0.123162 -0.10748,0.19482 -0.0515,0.03583 -0.2105,0.03583 l -0.94275,2.254982 h -0.44114 l -0.94051,-2.254982 q -0.16123,0 -0.21273,-0.03583 -0.10749,-0.06942 -0.10749,-0.19482 0,-0.103008 0.0717,-0.165709 0.0694,-0.06494 0.23512,-0.06494 l 0.62029,0.0022 q 0.16347,0 0.23289,0.0627 0.0717,0.0627 0.0717,0.165709 0,0.103008 -0.0694,0.167948 -0.0694,0.0627 -0.23513,0.0627 h -0.10748 z"
         id="path1244" />
      <path
         d="m 112.77304,-22.04055 -1.47122,3.170858 q -0.056,0.118684 -0.10077,0.154513 -0.0582,0.04702 -0.14108,0.04702 -0.0941,0 -0.16347,-0.06718 -0.0672,-0.06718 -0.0672,-0.152273 0,-0.06046 0.0538,-0.176905 l 1.4757,-3.168619 q 0.056,-0.118684 0.0985,-0.154512 0.0605,-0.04703 0.14108,-0.04703 0.094,0 0.16123,0.06718 0.0672,0.06494 0.0672,0.150034 0,0.06046 -0.0538,0.176905 z"
         id="path1246" />
      <path
         d="m 117.56292,-21.65315 v 2.731954 q 0,0.235128 -0.0112,0.279914 -0.0179,0.06718 -0.0806,0.114204 -0.0605,0.04703 -0.1366,0.04703 -0.0784,0 -0.14108,-0.04703 -0.0605,-0.04703 -0.0784,-0.118683 -0.0112,-0.04031 -0.0112,-0.275435 v -2.731954 q 0,-0.235127 0.0112,-0.279913 0.0179,-0.06718 0.0784,-0.114205 0.0627,-0.04703 0.14108,-0.04703 0.0761,0 0.1366,0.04703 0.0627,0.04703 0.0806,0.116444 0.0112,0.04479 0.0112,0.277674 z"
         id="path1248" />
      <path
         d="m 121.35407,-17.819457 h -2.52146 q -0.16571,0 -0.23513,-0.0627 -0.0717,-0.0627 -0.0717,-0.165709 0,-0.103008 0.0717,-0.167948 0.0694,-0.0627 0.23513,-0.0627 h 2.52146 q 0.16347,0 0.23289,0.0627 0.0716,0.06494 0.0716,0.167948 0,0.100769 -0.0694,0.163469 -0.0694,0.06494 -0.23512,0.06494 z"
         id="path1250" />
      <path
         d="m 129.61039,-17.819457 h -2.52146 q -0.16571,0 -0.23512,-0.0627 -0.0717,-0.0627 -0.0717,-0.165709 0,-0.103008 0.0717,-0.167948 0.0694,-0.0627 0.23512,-0.0627 h 2.52146 q 0.16347,0 0.23289,0.0627 0.0717,0.06494 0.0717,0.167948 0,0.100769 -0.0694,0.163469 -0.0694,0.06494 -0.23513,0.06494 z"
         id="path1252" />
      <path
         d="m 131.32346,-21.65315 v 2.731954 q 0,0.235128 -0.0112,0.279914 -0.0179,0.06718 -0.0806,0.114204 -0.0605,0.04703 -0.1366,0.04703 -0.0784,0 -0.14108,-0.04703 -0.0605,-0.04703 -0.0784,-0.118683 -0.0112,-0.04031 -0.0112,-0.275435 v -2.731954 q 0,-0.235127 0.0112,-0.279913 0.0179,-0.06718 0.0784,-0.114205 0.0627,-0.04703 0.14108,-0.04703 0.0761,0 0.1366,0.04703 0.0627,0.04703 0.0806,0.116444 0.0112,0.04479 0.0112,0.277674 z"
         id="path1254" />
      <path
         d="m 140.29412,-22.04055 -1.47122,3.170858 q -0.056,0.118684 -0.10077,0.154513 -0.0582,0.04702 -0.14108,0.04702 -0.0941,0 -0.16347,-0.06718 -0.0672,-0.06718 -0.0672,-0.152273 0,-0.06046 0.0537,-0.176905 l 1.4757,-3.168619 q 0.056,-0.118684 0.0985,-0.154512 0.0605,-0.04703 0.14108,-0.04703 0.0941,0 0.16123,0.06718 0.0672,0.06494 0.0672,0.150034 0,0.06046 -0.0538,0.176905 z"
         id="path1256" />
      <path
         d="m 145.084,-21.65315 v 2.731954 q 0,0.235128 -0.0112,0.279914 -0.0179,0.06718 -0.0806,0.114204 -0.0605,0.04703 -0.1366,0.04703 -0.0784,0 -0.14108,-0.04703 -0.0605,-0.04703 -0.0784,-0.118683 -0.0112,-0.04031 -0.0112,-0.275435 v -2.731954 q 0,-0.235127 0.0112,-0.279913 0.0179,-0.06718 0.0784,-0.114205 0.0627,-0.04703 0.14108,-0.04703 0.0761,0 0.1366,0.04703 0.0627,0.04703 0.0806,0.116444 0.0112,0.04479 0.0112,0.277674 z"
         id="path1258" />
      <path
         d="m 150.58821,-21.65315 v 2.731954 q 0,0.235128 -0.0112,0.279914 -0.0179,0.06718 -0.0806,0.114204 -0.0605,0.04703 -0.13659,0.04703 -0.0784,0 -0.14108,-0.04703 -0.0605,-0.04703 -0.0784,-0.118683 -0.0112,-0.04031 -0.0112,-0.275435 v -2.731954 q 0,-0.235127 0.0112,-0.279913 0.0179,-0.06718 0.0784,-0.114205 0.0627,-0.04703 0.14108,-0.04703 0.0761,0 0.13659,0.04703 0.0627,0.04703 0.0806,0.116444 0.0112,0.04479 0.0112,0.277674 z"
         id="path1260" />
      <path
         d="m 161.59665,-21.65315 v 2.731954 q 0,0.235128 -0.0112,0.279914 -0.0179,0.06718 -0.0806,0.114204 -0.0605,0.04703 -0.13659,0.04703 -0.0784,0 -0.14108,-0.04703 -0.0605,-0.04703 -0.0784,-0.118683 -0.0112,-0.04031 -0.0112,-0.275435 v -2.731954 q 0,-0.235127 0.0112,-0.279913 0.0179,-0.06718 0.0784,-0.114205 0.0627,-0.04703 0.14108,-0.04703 0.0761,0 0.13659,0.04703 0.0627,0.04703 0.0806,0.116444 0.0112,0.04479 0.0112,0.277674 z"
         id="path1262" />
      <path
         d="m 167.10086,-21.65315 v 2.731954 q 0,0.235128 -0.0112,0.279914 -0.0179,0.06718 -0.0806,0.114204 -0.0605,0.04703 -0.1366,0.04703 -0.0784,0 -0.14107,-0.04703 -0.0605,-0.04703 -0.0784,-0.118683 -0.0112,-0.04031 -0.0112,-0.275435 v -2.731954 q 0,-0.235127 0.0112,-0.279913 0.0179,-0.06718 0.0784,-0.114205 0.0627,-0.04703 0.14107,-0.04703 0.0761,0 0.1366,0.04703 0.0627,0.04703 0.0806,0.116444 0.0112,0.04479 0.0112,0.277674 z"
         id="path1264" />
      <path
         d="m 172.60508,-21.65315 v 2.731954 q 0,0.235128 -0.0112,0.279914 -0.0179,0.06718 -0.0806,0.114204 -0.0605,0.04703 -0.13659,0.04703 -0.0784,0 -0.14108,-0.04703 -0.0605,-0.04703 -0.0784,-0.118683 -0.0112,-0.04031 -0.0112,-0.275435 v -2.731954 q 0,-0.235127 0.0112,-0.279913 0.0179,-0.06718 0.0784,-0.114205 0.0627,-0.04703 0.14108,-0.04703 0.0761,0 0.13659,0.04703 0.0627,0.04703 0.0806,0.116444 0.0112,0.04479 0.0112,0.277674 z"
         id="path1266" />
      <path
         d="m 178.10929,-21.65315 v 2.731954 q 0,0.235128 -0.0112,0.279914 -0.0179,0.06718 -0.0806,0.114204 -0.0605,0.04703 -0.13659,0.04703 -0.0784,0 -0.14108,-0.04703 -0.0605,-0.04703 -0.0784,-0.118683 -0.0112,-0.04031 -0.0112,-0.275435 v -2.731954 q 0,-0.235127 0.0112,-0.279913 0.0179,-0.06718 0.0784,-0.114205 0.0627,-0.04703 0.14108,-0.04703 0.0761,0 0.13659,0.04703 0.0627,0.04703 0.0806,0.116444 0.0112,0.04479 0.0112,0.277674 z"
         id="path1268" />
      <path
         d="m 182.85662,-22.23313 1.47346,3.157422 q 0.0112,0.02463 0.0381,0.114205 0.0134,0.0515 0.0134,0.07838 0,0.08062 -0.0649,0.141076 -0.0627,0.06046 -0.15675,0.06046 -0.0873,0 -0.13884,-0.04031 -0.0515,-0.04031 -0.10749,-0.156752 l -1.47122,-3.159662 q -0.056,-0.118683 -0.056,-0.176905 0,-0.08509 0.0672,-0.152273 0.0694,-0.06718 0.16123,-0.06718 0.0829,0 0.13435,0.04031 0.0515,0.04031 0.10749,0.16123 z"
         id="path1270" />
      <path
         d="m 87.289734,-16.60844 v 2.731955 q 0,0.235127 -0.0112,0.279913 -0.01792,0.06718 -0.08061,0.114205 -0.06046,0.04702 -0.136598,0.04702 -0.07838,0 -0.141076,-0.04702 -0.06046,-0.04703 -0.07838,-0.118684 -0.0112,-0.04031 -0.0112,-0.275434 v -2.731955 q 0,-0.235127 0.0112,-0.279913 0.01791,-0.06718 0.07838,-0.114205 0.0627,-0.04702 0.141076,-0.04702 0.07614,0 0.136598,0.04702 0.0627,0.04703 0.08061,0.116444 0.0112,0.04479 0.0112,0.277674 z"
         id="path1272" />
      <path
         d="m 90.041842,-16.60844 v 2.731955 q 0,0.235127 -0.0112,0.279913 -0.01792,0.06718 -0.08062,0.114205 -0.06046,0.04702 -0.136598,0.04702 -0.07838,0 -0.141076,-0.04702 -0.06046,-0.04703 -0.07838,-0.118684 -0.0112,-0.04031 -0.0112,-0.275434 v -2.731955 q 0,-0.235127 0.0112,-0.279913 0.01791,-0.06718 0.07838,-0.114205 0.0627,-0.04702 0.141076,-0.04702 0.07614,0 0.136598,0.04702 0.0627,0.04703 0.08062,0.116444 0.0112,0.04479 0.0112,0.277674 z"
         id="path1274" />
      <path
         d="m 103.0455,-17.18842 1.47346,3.157422 q 0.0112,0.02463 0.0381,0.114205 0.0134,0.0515 0.0134,0.07838 0,0.08061 -0.0649,0.141076 -0.0627,0.06046 -0.15675,0.06046 -0.0873,0 -0.13883,-0.04031 -0.0515,-0.04031 -0.10749,-0.156752 l -1.47123,-3.159661 q -0.056,-0.118684 -0.056,-0.176906 0,-0.08509 0.0672,-0.152272 0.0694,-0.06718 0.16123,-0.06718 0.0828,0 0.13436,0.04031 0.0515,0.04031 0.10749,0.16123 z"
         id="path1276" />
      <path
         d="m 110.02094,-16.99584 -1.47123,3.170859 q -0.056,0.118683 -0.10077,0.154512 -0.0582,0.04703 -0.14107,0.04703 -0.0941,0 -0.16347,-0.06718 -0.0672,-0.06718 -0.0672,-0.152273 0,-0.06046 0.0537,-0.176905 l 1.4757,-3.168619 q 0.056,-0.118683 0.0985,-0.154512 0.0605,-0.04703 0.14108,-0.04703 0.094,0 0.16123,0.06718 0.0672,0.06494 0.0672,0.150033 0,0.06046 -0.0537,0.176905 z"
         id="path1278" />
      <path
         d="m 123.06713,-16.60844 v 2.731955 q 0,0.235127 -0.0112,0.279913 -0.0179,0.06718 -0.0806,0.114205 -0.0605,0.04702 -0.13659,0.04702 -0.0784,0 -0.14108,-0.04702 -0.0605,-0.04703 -0.0784,-0.118684 -0.0112,-0.04031 -0.0112,-0.275434 v -2.731955 q 0,-0.235127 0.0112,-0.279913 0.0179,-0.06718 0.0784,-0.114205 0.0627,-0.04702 0.14108,-0.04702 0.0761,0 0.13659,0.04702 0.0627,0.04703 0.0806,0.116444 0.0112,0.04479 0.0112,0.277674 z"
         id="path1280" />
      <path
         d="m 125.81924,-16.60844 v 2.731955 q 0,0.235127 -0.0112,0.279913 -0.0179,0.06718 -0.0806,0.114205 -0.0605,0.04702 -0.1366,0.04702 -0.0784,0 -0.14107,-0.04702 -0.0605,-0.04703 -0.0784,-0.118684 -0.0112,-0.04031 -0.0112,-0.275434 v -2.731955 q 0,-0.235127 0.0112,-0.279913 0.0179,-0.06718 0.0784,-0.114205 0.0627,-0.04702 0.14107,-0.04702 0.0761,0 0.1366,0.04702 0.0627,0.04703 0.0806,0.116444 0.0112,0.04479 0.0112,0.277674 z"
         id="path1282" />
      <path
         d="m 137.54201,-16.99584 -1.47122,3.170859 q -0.056,0.118683 -0.10077,0.154512 -0.0582,0.04703 -0.14108,0.04703 -0.094,0 -0.16347,-0.06718 -0.0672,-0.06718 -0.0672,-0.152273 0,-0.06046 0.0537,-0.176905 l 1.4757,-3.168619 q 0.056,-0.118683 0.0985,-0.154512 0.0605,-0.04703 0.14108,-0.04703 0.0941,0 0.16123,0.06718 0.0672,0.06494 0.0672,0.150033 0,0.06046 -0.0538,0.176905 z"
         id="path1284" />
      <path
         d="m 142.45057,-14.382569 q 0,0.12988 -0.0918,0.217213 -0.0918,0.08733 -0.25304,0.08733 -0.16123,0 -0.25304,-0.08733 -0.0918,-0.08733 -0.0918,-0.217213 0,-0.12988 0.0918,-0.217213 0.0918,-0.08733 0.25304,-0.08733 0.16123,0 0.25304,0.08733 0.0918,0.08733 0.0918,0.217213 z"
         id="path1286" />
      <path
         d="m 145.084,-16.60844 v 2.731955 q 0,0.235127 -0.0112,0.279913 -0.0179,0.06718 -0.0806,0.114205 -0.0605,0.04702 -0.1366,0.04702 -0.0784,0 -0.14108,-0.04702 -0.0605,-0.04703 -0.0784,-0.118684 -0.0112,-0.04031 -0.0112,-0.275434 v -2.731955 q 0,-0.235127 0.0112,-0.279913 0.0179,-0.06718 0.0784,-0.114205 0.0627,-0.04702 0.14108,-0.04702 0.0761,0 0.1366,0.04702 0.0627,0.04703 0.0806,0.116444 0.0112,0.04479 0.0112,0.277674 z"
         id="path1288" />
      <path
         d="m 150.58821,-16.60844 v 2.731955 q 0,0.235127 -0.0112,0.279913 -0.0179,0.06718 -0.0806,0.114205 -0.0605,0.04702 -0.13659,0.04702 -0.0784,0 -0.14108,-0.04702 -0.0605,-0.04703 -0.0784,-0.118684 -0.0112,-0.04031 -0.0112,-0.275434 v -2.731955 q 0,-0.235127 0.0112,-0.279913 0.0179,-0.06718 0.0784,-0.114205 0.0627,-0.04702 0.14108,-0.04702 0.0761,0 0.13659,0.04702 0.0627,0.04703 0.0806,0.116444 0.0112,0.04479 0.0112,0.277674 z"
         id="path1290" />
      <path
         d="m 154.83394,-14.610978 v -1.795924 q -0.14555,-0.0022 -0.21497,-0.06494 -0.0694,-0.06494 -0.0694,-0.165709 0,-0.103008 0.0694,-0.165708 0.0717,-0.06494 0.23737,-0.06494 l 0.96066,0.0022 q 0.22393,0 0.43666,0.08285 0.21498,0.08285 0.34486,0.210495 0.0985,0.09629 0.20377,0.264238 0.10749,0.167948 0.16123,0.333657 0.0538,0.165709 0.0538,0.405315 v 0.219452 q 0,0.29111 -0.0985,0.51728 -0.0985,0.22393 -0.25976,0.367246 -0.15899,0.141076 -0.30007,0.208255 -0.22393,0.105248 -0.57998,0.105248 h -0.92259 q -0.16571,0 -0.23737,-0.0627 -0.0694,-0.06494 -0.0694,-0.167948 0,-0.100769 0.0694,-0.165708 0.0717,-0.06494 0.21497,-0.0627 z m 0.45906,0 h 0.48817 q 0.2732,0 0.41203,-0.07838 0.18139,-0.103008 0.2732,-0.261999 0.0918,-0.15899 0.0918,-0.412032 v -0.217213 q 0,-0.217213 -0.0829,-0.380682 -0.12988,-0.255281 -0.29335,-0.349332 -0.16123,-0.09629 -0.40532,-0.09629 H 155.293 Z"
         id="path1292" />
      <path
         d="m 161.59665,-16.60844 v 2.731955 q 0,0.235127 -0.0112,0.279913 -0.0179,0.06718 -0.0806,0.114205 -0.0605,0.04702 -0.13659,0.04702 -0.0784,0 -0.14108,-0.04702 -0.0605,-0.04703 -0.0784,-0.118684 -0.0112,-0.04031 -0.0112,-0.275434 v -2.731955 q 0,-0.235127 0.0112,-0.279913 0.0179,-0.06718 0.0784,-0.114205 0.0627,-0.04702 0.14108,-0.04702 0.0761,0 0.13659,0.04702 0.0627,0.04703 0.0806,0.116444 0.0112,0.04479 0.0112,0.277674 z"
         id="path1294" />
      <path
         d="m 167.10086,-16.60844 v 2.731955 q 0,0.235127 -0.0112,0.279913 -0.0179,0.06718 -0.0806,0.114205 -0.0605,0.04702 -0.1366,0.04702 -0.0784,0 -0.14107,-0.04702 -0.0605,-0.04703 -0.0784,-0.118684 -0.0112,-0.04031 -0.0112,-0.275434 v -2.731955 q 0,-0.235127 0.0112,-0.279913 0.0179,-0.06718 0.0784,-0.114205 0.0627,-0.04702 0.14107,-0.04702 0.0761,0 0.1366,0.04702 0.0627,0.04703 0.0806,0.116444 0.0112,0.04479 0.0112,0.277674 z"
         id="path1296" />
      <path
         d="m 172.60508,-16.60844 v 2.731955 q 0,0.235127 -0.0112,0.279913 -0.0179,0.06718 -0.0806,0.114205 -0.0605,0.04702 -0.13659,0.04702 -0.0784,0 -0.14108,-0.04702 -0.0605,-0.04703 -0.0784,-0.118684 -0.0112,-0.04031 -0.0112,-0.275434 v -2.731955 q 0,-0.235127 0.0112,-0.279913 0.0179,-0.06718 0.0784,-0.114205 0.0627,-0.04702 0.14108,-0.04702 0.0761,0 0.13659,0.04702 0.0627,0.04703 0.0806,0.116444 0.0112,0.04479 0.0112,0.277674 z"
         id="path1298" />
      <path
         d="m 178.10929,-16.60844 v 2.731955 q 0,0.235127 -0.0112,0.279913 -0.0179,0.06718 -0.0806,0.114205 -0.0605,0.04702 -0.13659,0.04702 -0.0784,0 -0.14108,-0.04702 -0.0605,-0.04703 -0.0784,-0.118684 -0.0112,-0.04031 -0.0112,-0.275434 v -2.731955 q 0,-0.235127 0.0112,-0.279913 0.0179,-0.06718 0.0784,-0.114205 0.0627,-0.04702 0.14108,-0.04702 0.0761,0 0.13659,0.04702 0.0627,0.04703 0.0806,0.116444 0.0112,0.04479 0.0112,0.277674 z"
         id="path1300" />
      <path
         d="m 180.98008,-14.382569 q 0,0.12988 -0.0918,0.217213 -0.0918,0.08733 -0.25304,0.08733 -0.16123,0 -0.25304,-0.08733 -0.0918,-0.08733 -0.0918,-0.217213 0,-0.12988 0.0918,-0.217213 0.0918,-0.08733 0.25304,-0.08733 0.16123,0 0.25304,0.08733 0.0918,0.08733 0.0918,0.217213 z"
         id="path1302" />
      <path
         d="m 185.60873,-17.18842 1.47347,3.157422 q 0.0112,0.02463 0.0381,0.114205 0.0134,0.0515 0.0134,0.07838 0,0.08061 -0.0649,0.141076 -0.0627,0.06046 -0.15675,0.06046 -0.0873,0 -0.13884,-0.04031 -0.0515,-0.04031 -0.10748,-0.156752 l -1.47123,-3.159661 q -0.056,-0.118684 -0.056,-0.176906 0,-0.08509 0.0672,-0.152272 0.0694,-0.06718 0.16123,-0.06718 0.0828,0 0.13436,0.04031 0.0515,0.04031 0.10748,0.16123 z"
         id="path1304" />
      <path
         d="m 87.289734,-11.563729 v 2.7319537 q 0,0.2351273 -0.0112,0.2799134 -0.01792,0.067179 -0.08061,0.1142046 -0.06046,0.047026 -0.136598,0.047026 -0.07838,0 -0.141076,-0.047026 -0.06046,-0.047025 -0.07838,-0.1186832 -0.0112,-0.040308 -0.0112,-0.2754348 v -2.7319537 q 0,-0.235128 0.0112,-0.279914 0.01791,-0.06718 0.07838,-0.114204 0.0627,-0.04703 0.141076,-0.04703 0.07614,0 0.136598,0.04703 0.0627,0.04702 0.08061,0.116444 0.0112,0.04479 0.0112,0.277674 z"
         id="path1306" />
      <path
         d="m 90.041842,-11.563729 v 2.7319537 q 0,0.2351273 -0.0112,0.2799134 -0.01792,0.067179 -0.08062,0.1142046 -0.06046,0.047026 -0.136598,0.047026 -0.07838,0 -0.141076,-0.047026 -0.06046,-0.047025 -0.07838,-0.1186832 -0.0112,-0.040308 -0.0112,-0.2754348 v -2.7319537 q 0,-0.235128 0.0112,-0.279914 0.01791,-0.06718 0.07838,-0.114204 0.0627,-0.04703 0.141076,-0.04703 0.07614,0 0.136598,0.04703 0.0627,0.04702 0.08062,0.116444 0.0112,0.04479 0.0112,0.277674 z"
         id="path1308" />
      <path
         d="m 104.51672,-11.951129 -1.47122,3.1708578 q -0.056,0.1186833 -0.10077,0.1545122 -0.0582,0.047025 -0.14108,0.047025 -0.0941,0 -0.16347,-0.067179 -0.0672,-0.067179 -0.0672,-0.1522729 0,-0.060461 0.0538,-0.1769052 l 1.4757,-3.1686191 q 0.056,-0.118683 0.0985,-0.154512 0.0605,-0.04702 0.14107,-0.04702 0.0941,0 0.16123,0.06718 0.0672,0.06494 0.0672,0.150033 0,0.06046 -0.0537,0.176906 z"
         id="path1310" />
      <path
         d="m 108.54971,-12.14371 1.47346,3.1574226 q 0.0112,0.024632 0.0381,0.1142046 0.0134,0.051504 0.0134,0.078376 0,0.080615 -0.0649,0.1410763 -0.0627,0.060461 -0.15675,0.060461 -0.0873,0 -0.13884,-0.040308 -0.0515,-0.040308 -0.10749,-0.1567514 l -1.47122,-3.1596616 q -0.056,-0.118683 -0.056,-0.176905 0,-0.08509 0.0672,-0.152273 0.0694,-0.06718 0.16123,-0.06718 0.0829,0 0.13435,0.04031 0.0515,0.04031 0.10749,0.16123 z"
         id="path1312" />
      <path
         d="m 123.06713,-11.563729 v 2.7319537 q 0,0.2351273 -0.0112,0.2799134 -0.0179,0.067179 -0.0806,0.1142046 -0.0605,0.047026 -0.13659,0.047026 -0.0784,0 -0.14108,-0.047026 -0.0605,-0.047025 -0.0784,-0.1186832 -0.0112,-0.040308 -0.0112,-0.2754348 v -2.7319537 q 0,-0.235128 0.0112,-0.279914 0.0179,-0.06718 0.0784,-0.114204 0.0627,-0.04703 0.14108,-0.04703 0.0761,0 0.13659,0.04703 0.0627,0.04702 0.0806,0.116444 0.0112,0.04479 0.0112,0.277674 z"
         id="path1314" />
      <path
         d="m 125.81924,-11.563729 v 2.7319537 q 0,0.2351273 -0.0112,0.2799134 -0.0179,0.067179 -0.0806,0.1142046 -0.0605,0.047026 -0.1366,0.047026 -0.0784,0 -0.14107,-0.047026 -0.0605,-0.047025 -0.0784,-0.1186832 -0.0112,-0.040308 -0.0112,-0.2754348 v -2.7319537 q 0,-0.235128 0.0112,-0.279914 0.0179,-0.06718 0.0784,-0.114204 0.0627,-0.04703 0.14107,-0.04703 0.0761,0 0.1366,0.04703 0.0627,0.04702 0.0806,0.116444 0.0112,0.04479 0.0112,0.277674 z"
         id="path1316" />
      <path
         d="m 134.78991,-11.951129 -1.47123,3.1708578 q -0.056,0.1186833 -0.10077,0.1545122 -0.0582,0.047025 -0.14107,0.047025 -0.0941,0 -0.16347,-0.067179 -0.0672,-0.067179 -0.0672,-0.1522729 0,-0.060461 0.0537,-0.1769052 l 1.47571,-3.1686191 q 0.056,-0.118683 0.0985,-0.154512 0.0605,-0.04702 0.14107,-0.04702 0.0941,0 0.16123,0.06718 0.0672,0.06494 0.0672,0.150033 0,0.06046 -0.0537,0.176906 z"
         id="path1318" />
      <path
         d="m 140.29412,-11.951129 -1.47122,3.1708578 q -0.056,0.1186833 -0.10077,0.1545122 -0.0582,0.047025 -0.14108,0.047025 -0.0941,0 -0.16347,-0.067179 -0.0672,-0.067179 -0.0672,-0.1522729 0,-0.060461 0.0537,-0.1769052 l 1.4757,-3.1686191 q 0.056,-0.118683 0.0985,-0.154512 0.0605,-0.04702 0.14108,-0.04702 0.0941,0 0.16123,0.06718 0.0672,0.06494 0.0672,0.150033 0,0.06046 -0.0538,0.176906 z"
         id="path1320" />
      <path
         d="m 142.33189,-11.563729 v 2.7319537 q 0,0.2351273 -0.0112,0.2799134 -0.0179,0.067179 -0.0806,0.1142046 -0.0605,0.047026 -0.1366,0.047026 -0.0784,0 -0.14108,-0.047026 -0.0605,-0.047025 -0.0784,-0.1186832 -0.0112,-0.040308 -0.0112,-0.2754348 v -2.7319537 q 0,-0.235128 0.0112,-0.279914 0.0179,-0.06718 0.0784,-0.114204 0.0627,-0.04703 0.14108,-0.04703 0.0761,0 0.1366,0.04703 0.0627,0.04702 0.0806,0.116444 0.0112,0.04479 0.0112,0.277674 z"
         id="path1322" />
      <path
         d="m 145.084,-11.563729 v 2.7319537 q 0,0.2351273 -0.0112,0.2799134 -0.0179,0.067179 -0.0806,0.1142046 -0.0605,0.047026 -0.1366,0.047026 -0.0784,0 -0.14108,-0.047026 -0.0605,-0.047025 -0.0784,-0.1186832 -0.0112,-0.040308 -0.0112,-0.2754348 v -2.7319537 q 0,-0.235128 0.0112,-0.279914 0.0179,-0.06718 0.0784,-0.114204 0.0627,-0.04703 0.14108,-0.04703 0.0761,0 0.1366,0.04703 0.0627,0.04702 0.0806,0.116444 0.0112,0.04479 0.0112,0.277674 z"
         id="path1324" />
      <path
         d="m 150.58821,-11.563729 v 2.7319537 q 0,0.2351273 -0.0112,0.2799134 -0.0179,0.067179 -0.0806,0.1142046 -0.0605,0.047026 -0.13659,0.047026 -0.0784,0 -0.14108,-0.047026 -0.0605,-0.047025 -0.0784,-0.1186832 -0.0112,-0.040308 -0.0112,-0.2754348 v -2.7319537 q 0,-0.235128 0.0112,-0.279914 0.0179,-0.06718 0.0784,-0.114204 0.0627,-0.04703 0.14108,-0.04703 0.0761,0 0.13659,0.04703 0.0627,0.04702 0.0806,0.116444 0.0112,0.04479 0.0112,0.277674 z"
         id="path1326" />
      <path
         d="m 158.13244,-10.414965 1.4869,0.8240648 q 0.11196,0.062701 0.14779,0.1119653 0.0381,0.049265 0.0381,0.1254012 0,0.09629 -0.0694,0.167948 -0.0694,0.069419 -0.16123,0.069419 -0.0605,0 -0.18138,-0.067179 l -2.21467,-1.2316186 2.21467,-1.231619 q 0.12092,-0.06494 0.17914,-0.06494 0.0941,0 0.16347,0.06942 0.0694,0.06942 0.0694,0.165709 0,0.07614 -0.0381,0.125401 -0.0358,0.04926 -0.14779,0.111965 z"
         id="path1328" />
      <path
         d="m 167.10086,-11.563729 v 2.7319537 q 0,0.2351273 -0.0112,0.2799134 -0.0179,0.067179 -0.0806,0.1142046 -0.0605,0.047026 -0.1366,0.047026 -0.0784,0 -0.14107,-0.047026 -0.0605,-0.047025 -0.0784,-0.1186832 -0.0112,-0.040308 -0.0112,-0.2754348 v -2.7319537 q 0,-0.235128 0.0112,-0.279914 0.0179,-0.06718 0.0784,-0.114204 0.0627,-0.04703 0.14107,-0.04703 0.0761,0 0.1366,0.04703 0.0627,0.04702 0.0806,0.116444 0.0112,0.04479 0.0112,0.277674 z"
         id="path1330" />
      <path
         d="m 172.60508,-11.563729 v 2.7319537 q 0,0.2351273 -0.0112,0.2799134 -0.0179,0.067179 -0.0806,0.1142046 -0.0605,0.047026 -0.13659,0.047026 -0.0784,0 -0.14108,-0.047026 -0.0605,-0.047025 -0.0784,-0.1186832 -0.0112,-0.040308 -0.0112,-0.2754348 v -2.7319537 q 0,-0.235128 0.0112,-0.279914 0.0179,-0.06718 0.0784,-0.114204 0.0627,-0.04703 0.14108,-0.04703 0.0761,0 0.13659,0.04703 0.0627,0.04702 0.0806,0.116444 0.0112,0.04479 0.0112,0.277674 z"
         id="path1332" />
      <path
         d="m 178.10929,-11.563729 v 2.7319537 q 0,0.2351273 -0.0112,0.2799134 -0.0179,0.067179 -0.0806,0.1142046 -0.0605,0.047026 -0.13659,0.047026 -0.0784,0 -0.14108,-0.047026 -0.0605,-0.047025 -0.0784,-0.1186832 -0.0112,-0.040308 -0.0112,-0.2754348 v -2.7319537 q 0,-0.235128 0.0112,-0.279914 0.0179,-0.06718 0.0784,-0.114204 0.0627,-0.04703 0.14108,-0.04703 0.0761,0 0.13659,0.04703 0.0627,0.04702 0.0806,0.116444 0.0112,0.04479 0.0112,0.277674 z"
         id="path1334" />
      <path
         d="m 180.8614,-11.563729 v 2.7319537 q 0,0.2351273 -0.0112,0.2799134 -0.0179,0.067179 -0.0806,0.1142046 -0.0605,0.047026 -0.1366,0.047026 -0.0784,0 -0.14108,-0.047026 -0.0605,-0.047025 -0.0784,-0.1186832 -0.0112,-0.040308 -0.0112,-0.2754348 v -2.7319537 q 0,-0.235128 0.0112,-0.279914 0.0179,-0.06718 0.0784,-0.114204 0.0627,-0.04703 0.14108,-0.04703 0.0761,0 0.1366,0.04703 0.0627,0.04702 0.0806,0.116444 0.0112,0.04479 0.0112,0.277674 z"
         id="path1336" />
      <path
         d="m 182.85662,-12.14371 1.47346,3.1574226 q 0.0112,0.024632 0.0381,0.1142046 0.0134,0.051504 0.0134,0.078376 0,0.080615 -0.0649,0.1410763 -0.0627,0.060461 -0.15675,0.060461 -0.0873,0 -0.13884,-0.040308 -0.0515,-0.040308 -0.10749,-0.1567514 l -1.47122,-3.1596616 q -0.056,-0.118683 -0.056,-0.176905 0,-0.08509 0.0672,-0.152273 0.0694,-0.06718 0.16123,-0.06718 0.0829,0 0.13435,0.04031 0.0515,0.04031 0.10749,0.16123 z"
         id="path1338" />
      <path
         d="m 188.36084,-12.14371 1.47346,3.1574226 q 0.0112,0.024632 0.0381,0.1142046 0.0134,0.051504 0.0134,0.078376 0,0.080615 -0.0649,0.1410763 -0.0627,0.060461 -0.15675,0.060461 -0.0873,0 -0.13884,-0.040308 -0.0515,-0.040308 -0.10749,-0.1567514 l -1.47122,-3.1596616 q -0.056,-0.118683 -0.056,-0.176905 0,-0.08509 0.0672,-0.152273 0.0694,-0.06718 0.16123,-0.06718 0.0829,0 0.13436,0.04031 0.0515,0.04031 0.10749,0.16123 z"
         id="path1340" />
      <path
         d="m 87.289734,-6.5190192 v 2.7319542 q 0,0.2351272 -0.0112,0.2799133 -0.01792,0.067179 -0.08061,0.1142046 -0.06046,0.047026 -0.136598,0.047026 -0.07838,0 -0.141076,-0.047026 -0.06046,-0.047025 -0.07838,-0.1186832 -0.0112,-0.040307 -0.0112,-0.2754347 v -2.7319542 q 0,-0.2351272 0.0112,-0.2799133 0.01791,-0.067179 0.07838,-0.1142047 0.0627,-0.047025 0.141076,-0.047025 0.07614,0 0.136598,0.047025 0.0627,0.047026 0.08061,0.116444 0.0112,0.044786 0.0112,0.277674 z"
         id="path1342" />
      <path
         d="m 90.041842,-6.5190192 v 2.7319542 q 0,0.2351272 -0.0112,0.2799133 -0.01792,0.067179 -0.08062,0.1142046 -0.06046,0.047026 -0.136598,0.047026 -0.07838,0 -0.141076,-0.047026 -0.06046,-0.047025 -0.07838,-0.1186832 -0.0112,-0.040307 -0.0112,-0.2754347 v -2.7319542 q 0,-0.2351272 0.0112,-0.2799133 0.01791,-0.067179 0.07838,-0.1142047 0.0627,-0.047025 0.141076,-0.047025 0.07614,0 0.136598,0.047025 0.0627,0.047026 0.08062,0.116444 0.0112,0.044786 0.0112,0.277674 z"
         id="path1344" />
      <path
         d="m 101.76461,-6.9064192 -1.47122,3.1708582 q -0.056,0.1186833 -0.10077,0.1545122 -0.0582,0.047025 -0.14108,0.047025 -0.09405,0 -0.163466,-0.067179 -0.06718,-0.067179 -0.06718,-0.1522728 0,-0.060461 0.05374,-0.1769053 l 1.475702,-3.1686189 q 0.056,-0.1186833 0.0985,-0.1545122 0.0605,-0.047025 0.14108,-0.047025 0.094,0 0.16123,0.067179 0.0672,0.06494 0.0672,0.1500335 0,0.060461 -0.0537,0.1769053 z"
         id="path1346" />
      <path
         d="m 104.84142,-2.6853261 h -2.52146 q -0.16571,0 -0.23513,-0.062701 -0.0716,-0.062701 -0.0716,-0.1657087 0,-0.1030081 0.0716,-0.167948 0.0694,-0.062701 0.23513,-0.062701 h 2.52146 q 0.16347,0 0.23289,0.062701 0.0717,0.06494 0.0717,0.167948 0,0.1007688 -0.0694,0.1634694 -0.0694,0.06494 -0.23513,0.06494 z"
         id="path1348" />
      <path
         d="m 106.31712,-6.371225 -0.53967,0.649399 q -0.0739,0.089572 -0.11868,0.1164439 -0.0448,0.026872 -0.10525,0.026872 -0.0963,0 -0.16571,-0.067179 -0.0672,-0.069419 -0.0672,-0.167948 0,-0.078376 0.10077,-0.2015376 l 0.89572,-1.0815851 0.90244,1.0815851 q 0.0649,0.078376 0.0829,0.1186833 0.0202,0.040307 0.0202,0.085094 0,0.09629 -0.0694,0.1657087 -0.0672,0.067179 -0.16123,0.067179 -0.0627,0 -0.10748,-0.026872 -0.0448,-0.026872 -0.11869,-0.1142046 z"
         id="path1350" />
      <path
         d="m 110.34563,-2.6853261 h -2.52145 q -0.16571,0 -0.23513,-0.062701 -0.0717,-0.062701 -0.0717,-0.1657087 0,-0.1030081 0.0717,-0.167948 0.0694,-0.062701 0.23513,-0.062701 h 2.52145 q 0.16347,0 0.23289,0.062701 0.0717,0.06494 0.0717,0.167948 0,0.1007688 -0.0694,0.1634694 -0.0694,0.06494 -0.23513,0.06494 z"
         id="path1352" />
      <path
         d="m 111.30182,-7.0989996 1.47346,3.1574224 q 0.0112,0.024632 0.0381,0.1142046 0.0134,0.051504 0.0134,0.078376 0,0.080615 -0.0649,0.1410763 -0.0627,0.060461 -0.15676,0.060461 -0.0873,0 -0.13883,-0.040307 -0.0515,-0.040308 -0.10749,-0.1567515 l -1.47122,-3.1596617 q -0.056,-0.1186833 -0.056,-0.1769053 0,-0.085094 0.0672,-0.1522728 0.0694,-0.067179 0.16123,-0.067179 0.0829,0 0.13436,0.040307 0.0515,0.040307 0.10749,0.1612301 z"
         id="path1354" />
      <path
         d="m 123.06713,-6.5190192 v 2.7319542 q 0,0.2351272 -0.0112,0.2799133 -0.0179,0.067179 -0.0806,0.1142046 -0.0605,0.047026 -0.13659,0.047026 -0.0784,0 -0.14108,-0.047026 -0.0605,-0.047025 -0.0784,-0.1186832 -0.0112,-0.040307 -0.0112,-0.2754347 v -2.7319542 q 0,-0.2351272 0.0112,-0.2799133 0.0179,-0.067179 0.0784,-0.1142047 0.0627,-0.047025 0.14108,-0.047025 0.0761,0 0.13659,0.047025 0.0627,0.047026 0.0806,0.116444 0.0112,0.044786 0.0112,0.277674 z"
         id="path1356" />
      <path
         d="m 125.81924,-6.5190192 v 2.7319542 q 0,0.2351272 -0.0112,0.2799133 -0.0179,0.067179 -0.0806,0.1142046 -0.0605,0.047026 -0.1366,0.047026 -0.0784,0 -0.14107,-0.047026 -0.0605,-0.047025 -0.0784,-0.1186832 -0.0112,-0.040307 -0.0112,-0.2754347 v -2.7319542 q 0,-0.2351272 0.0112,-0.2799133 0.0179,-0.067179 0.0784,-0.1142047 0.0627,-0.047025 0.14107,-0.047025 0.0761,0 0.1366,0.047025 0.0627,0.047026 0.0806,0.116444 0.0112,0.044786 0.0112,0.277674 z"
         id="path1358" />
      <path
         d="m 132.0378,-6.9064192 -1.47123,3.1708582 q -0.056,0.1186833 -0.10077,0.1545122 -0.0582,0.047025 -0.14107,0.047025 -0.094,0 -0.16347,-0.067179 -0.0672,-0.067179 -0.0672,-0.1522728 0,-0.060461 0.0537,-0.1769053 l 1.47571,-3.1686189 q 0.056,-0.1186833 0.0985,-0.1545122 0.0605,-0.047025 0.14107,-0.047025 0.094,0 0.16123,0.067179 0.0672,0.06494 0.0672,0.1500335 0,0.060461 -0.0537,0.1769053 z"
         id="path1360" />
      <path
         d="m 137.54201,-6.9064192 -1.47122,3.1708582 q -0.056,0.1186833 -0.10077,0.1545122 -0.0582,0.047025 -0.14108,0.047025 -0.094,0 -0.16347,-0.067179 -0.0672,-0.067179 -0.0672,-0.1522728 0,-0.060461 0.0537,-0.1769053 l 1.4757,-3.1686189 q 0.056,-0.1186833 0.0985,-0.1545122 0.0605,-0.047025 0.14108,-0.047025 0.0941,0 0.16123,0.067179 0.0672,0.06494 0.0672,0.1500335 0,0.060461 -0.0538,0.1769053 z"
         id="path1362" />
      <path
         d="m 142.33189,-6.5190192 v 2.7319542 q 0,0.2351272 -0.0112,0.2799133 -0.0179,0.067179 -0.0806,0.1142046 -0.0605,0.047026 -0.1366,0.047026 -0.0784,0 -0.14108,-0.047026 -0.0605,-0.047025 -0.0784,-0.1186832 -0.0112,-0.040307 -0.0112,-0.2754347 v -2.7319542 q 0,-0.2351272 0.0112,-0.2799133 0.0179,-0.067179 0.0784,-0.1142047 0.0627,-0.047025 0.14108,-0.047025 0.0761,0 0.1366,0.047025 0.0627,0.047026 0.0806,0.116444 0.0112,0.044786 0.0112,0.277674 z"
         id="path1364" />
      <path
         d="m 145.084,-6.5190192 v 2.7319542 q 0,0.2351272 -0.0112,0.2799133 -0.0179,0.067179 -0.0806,0.1142046 -0.0605,0.047026 -0.1366,0.047026 -0.0784,0 -0.14108,-0.047026 -0.0605,-0.047025 -0.0784,-0.1186832 -0.0112,-0.040307 -0.0112,-0.2754347 v -2.7319542 q 0,-0.2351272 0.0112,-0.2799133 0.0179,-0.067179 0.0784,-0.1142047 0.0627,-0.047025 0.14108,-0.047025 0.0761,0 0.1366,0.047025 0.0627,0.047026 0.0806,0.116444 0.0112,0.044786 0.0112,0.277674 z"
         id="path1366" />
      <path
         d="m 150.58821,-6.5190192 v 2.7319542 q 0,0.2351272 -0.0112,0.2799133 -0.0179,0.067179 -0.0806,0.1142046 -0.0605,0.047026 -0.13659,0.047026 -0.0784,0 -0.14108,-0.047026 -0.0605,-0.047025 -0.0784,-0.1186832 -0.0112,-0.040307 -0.0112,-0.2754347 v -2.7319542 q 0,-0.2351272 0.0112,-0.2799133 0.0179,-0.067179 0.0784,-0.1142047 0.0627,-0.047025 0.14108,-0.047025 0.0761,0 0.13659,0.047025 0.0627,0.047026 0.0806,0.116444 0.0112,0.044786 0.0112,0.277674 z"
         id="path1368" />
      <path
         d="m 153.34032,-6.5190192 v 2.7319542 q 0,0.2351272 -0.0112,0.2799133 -0.0179,0.067179 -0.0806,0.1142046 -0.0605,0.047026 -0.1366,0.047026 -0.0784,0 -0.14108,-0.047026 -0.0605,-0.047025 -0.0784,-0.1186832 -0.0112,-0.040307 -0.0112,-0.2754347 v -2.7319542 q 0,-0.2351272 0.0112,-0.2799133 0.0179,-0.067179 0.0784,-0.1142047 0.0627,-0.047025 0.14108,-0.047025 0.0761,0 0.1366,0.047025 0.0627,0.047026 0.0806,0.116444 0.0112,0.044786 0.0112,0.277674 z"
         id="path1370" />
      <path
         d="m 155.33555,-7.0989996 1.47346,3.1574224 q 0.0112,0.024632 0.0381,0.1142046 0.0134,0.051504 0.0134,0.078376 0,0.080615 -0.0649,0.1410763 -0.0627,0.060461 -0.15676,0.060461 -0.0873,0 -0.13883,-0.040307 -0.0515,-0.040308 -0.10749,-0.1567515 l -1.47122,-3.1596617 q -0.056,-0.1186833 -0.056,-0.1769053 0,-0.085094 0.0672,-0.1522728 0.0694,-0.067179 0.16123,-0.067179 0.0829,0 0.13436,0.040307 0.0515,0.040307 0.10749,0.1612301 z"
         id="path1372" />
      <path
         d="m 159.88358,-2.6853261 h -2.52146 q -0.16571,0 -0.23513,-0.062701 -0.0717,-0.062701 -0.0717,-0.1657087 0,-0.1030081 0.0717,-0.167948 0.0694,-0.062701 0.23513,-0.062701 h 2.52146 q 0.16347,0 0.23289,0.062701 0.0717,0.06494 0.0717,0.167948 0,0.1007688 -0.0694,0.1634694 -0.0694,0.06494 -0.23512,0.06494 z"
         id="path1374" />
      <path
         d="m 160.83976,-7.0989996 1.47346,3.1574224 q 0.0112,0.024632 0.0381,0.1142046 0.0134,0.051504 0.0134,0.078376 0,0.080615 -0.0649,0.1410763 -0.0627,0.060461 -0.15675,0.060461 -0.0873,0 -0.13884,-0.040307 -0.0515,-0.040308 -0.10749,-0.1567515 l -1.47122,-3.1596617 q -0.056,-0.1186833 -0.056,-0.1769053 0,-0.085094 0.0672,-0.1522728 0.0694,-0.067179 0.16123,-0.067179 0.0829,0 0.13436,0.040307 0.0515,0.040307 0.10749,0.1612301 z"
         id="path1376" />
      <path
         d="m 167.10086,-6.5190192 v 2.7319542 q 0,0.2351272 -0.0112,0.2799133 -0.0179,0.067179 -0.0806,0.1142046 -0.0605,0.047026 -0.1366,0.047026 -0.0784,0 -0.14107,-0.047026 -0.0605,-0.047025 -0.0784,-0.1186832 -0.0112,-0.040307 -0.0112,-0.2754347 v -2.7319542 q 0,-0.2351272 0.0112,-0.2799133 0.0179,-0.067179 0.0784,-0.1142047 0.0627,-0.047025 0.14107,-0.047025 0.0761,0 0.1366,0.047025 0.0627,0.047026 0.0806,0.116444 0.0112,0.044786 0.0112,0.277674 z"
         id="path1378" />
      <path
         d="m 170.89201,-2.6853261 h -2.52146 q -0.16571,0 -0.23513,-0.062701 -0.0717,-0.062701 -0.0717,-0.1657087 0,-0.1030081 0.0717,-0.167948 0.0694,-0.062701 0.23513,-0.062701 h 2.52146 q 0.16347,0 0.23289,0.062701 0.0717,0.06494 0.0717,0.167948 0,0.1007688 -0.0694,0.1634694 -0.0694,0.06494 -0.23513,0.06494 z"
         id="path1380" />
      <path
         d="m 172.60508,-6.5190192 v 2.7319542 q 0,0.2351272 -0.0112,0.2799133 -0.0179,0.067179 -0.0806,0.1142046 -0.0605,0.047026 -0.13659,0.047026 -0.0784,0 -0.14108,-0.047026 -0.0605,-0.047025 -0.0784,-0.1186832 -0.0112,-0.040307 -0.0112,-0.2754347 v -2.7319542 q 0,-0.2351272 0.0112,-0.2799133 0.0179,-0.067179 0.0784,-0.1142047 0.0627,-0.047025 0.14108,-0.047025 0.0761,0 0.13659,0.047025 0.0627,0.047026 0.0806,0.116444 0.0112,0.044786 0.0112,0.277674 z"
         id="path1382" />
      <path
         d="m 178.10929,-6.5190192 v 2.7319542 q 0,0.2351272 -0.0112,0.2799133 -0.0179,0.067179 -0.0806,0.1142046 -0.0605,0.047026 -0.13659,0.047026 -0.0784,0 -0.14108,-0.047026 -0.0605,-0.047025 -0.0784,-0.1186832 -0.0112,-0.040307 -0.0112,-0.2754347 v -2.7319542 q 0,-0.2351272 0.0112,-0.2799133 0.0179,-0.067179 0.0784,-0.1142047 0.0627,-0.047025 0.14108,-0.047025 0.0761,0 0.13659,0.047025 0.0627,0.047026 0.0806,0.116444 0.0112,0.044786 0.0112,0.277674 z"
         id="path1384" />
      <path
         d="m 180.8614,-6.5190192 v 2.7319542 q 0,0.2351272 -0.0112,0.2799133 -0.0179,0.067179 -0.0806,0.1142046 -0.0605,0.047026 -0.1366,0.047026 -0.0784,0 -0.14108,-0.047026 -0.0605,-0.047025 -0.0784,-0.1186832 -0.0112,-0.040307 -0.0112,-0.2754347 v -2.7319542 q 0,-0.2351272 0.0112,-0.2799133 0.0179,-0.067179 0.0784,-0.1142047 0.0627,-0.047025 0.14108,-0.047025 0.0761,0 0.1366,0.047025 0.0627,0.047026 0.0806,0.116444 0.0112,0.044786 0.0112,0.277674 z"
         id="path1386" />
      <path
         d="m 185.60873,-7.0989996 1.47347,3.1574224 q 0.0112,0.024632 0.0381,0.1142046 0.0134,0.051504 0.0134,0.078376 0,0.080615 -0.0649,0.1410763 -0.0627,0.060461 -0.15675,0.060461 -0.0873,0 -0.13884,-0.040307 -0.0515,-0.040308 -0.10748,-0.1567515 l -1.47123,-3.1596617 q -0.056,-0.1186833 -0.056,-0.1769053 0,-0.085094 0.0672,-0.1522728 0.0694,-0.067179 0.16123,-0.067179 0.0828,0 0.13436,0.040307 0.0515,0.040307 0.10748,0.1612301 z"
         id="path1388" />
      <path
         d="m 190.15676,-2.6853261 h -2.52146 q -0.1657,0 -0.23512,-0.062701 -0.0717,-0.062701 -0.0717,-0.1657087 0,-0.1030081 0.0717,-0.167948 0.0694,-0.062701 0.23512,-0.062701 h 2.52146 q 0.16347,0 0.23289,0.062701 0.0717,0.06494 0.0717,0.167948 0,0.1007688 -0.0694,0.1634694 -0.0694,0.06494 -0.23513,0.06494 z"
         id="path1390" />
      <path
         d="m 191.11295,-7.0989996 1.47346,3.1574224 q 0.0112,0.024632 0.0381,0.1142046 0.0134,0.051504 0.0134,0.078376 0,0.080615 -0.0649,0.1410763 -0.0627,0.060461 -0.15675,0.060461 -0.0873,0 -0.13884,-0.040307 -0.0515,-0.040308 -0.10748,-0.1567515 l -1.47123,-3.1596617 q -0.056,-0.1186833 -0.056,-0.1769053 0,-0.085094 0.0672,-0.1522728 0.0694,-0.067179 0.16123,-0.067179 0.0828,0 0.13436,0.040307 0.0515,0.040307 0.10749,0.1612301 z"
         id="path1392" />
    </g>
  </g>
</svg>
