<?xml version="1.0" encoding="UTF-8" standalone="no"?>
<!-- Created with Inkscape (http://www.inkscape.org/) -->

<svg
   width="16"
   height="16"
   viewBox="0 0 4.2333333 4.2333333"
   version="1.1"
   id="svg5"
   inkscape:version="1.1 (c68e22c387, 2021-05-23)"
   sodipodi:docname="favicon.svg"
   inkscape:export-filename="C:\Users\annar\code\myApps\phaser\ASCII_Platformer\assets\favicon.png"
   inkscape:export-xdpi="96"
   inkscape:export-ydpi="96"
   xmlns:inkscape="http://www.inkscape.org/namespaces/inkscape"
   xmlns:sodipodi="http://sodipodi.sourceforge.net/DTD/sodipodi-0.dtd"
   xmlns="http://www.w3.org/2000/svg"
   xmlns:svg="http://www.w3.org/2000/svg">
  <sodipodi:namedview
     id="namedview7"
     pagecolor="#505050"
     bordercolor="#eeeeee"
     borderopacity="1"
     inkscape:pageshadow="0"
     inkscape:pageopacity="0"
     inkscape:pagecheckerboard="0"
     inkscape:document-units="px"
     showgrid="false"
     inkscape:zoom="27.28125"
     inkscape:cx="7.4593356"
     inkscape:cy="5.9747995"
     inkscape:current-layer="layer1" />
  <defs
     id="defs2" />
  <g
     inkscape:label="Layer 1"
     inkscape:groupmode="layer"
     id="layer1">
    <g
       aria-label="{$}"
       id="text1838"
       style="font-weight:bold;font-size:4.23333px;line-height:1.1;font-family:monospace;-inkscape-font-specification:'monospace Bold';fill:#ffffff;stroke-width:0.1;stroke-linecap:round;stroke-linejoin:round;stroke-opacity:0.984314"
       transform="translate(0,-0.06140324)">
      <path
         d="m 0.7255392,2.2907243 c 0.0496093,0.056499 0.0833712,0.1116208 0.10128572,0.1653644 0.0179145,0.052365 0.0268717,0.1378036 0.0268717,0.2563149 v 0.6738601 c 0,0.056499 0.0103353,0.096462 0.0310058,0.1198892 0.0220486,0.024805 0.0620117,0.039274 0.11988918,0.043408 0.057878,0.00551 0.1054199,0.028251 0.1426269,0.068213 0.037207,0.039963 0.05581,0.088884 0.05581,0.146761 0,0.060633 -0.02136,0.1116207 -0.064079,0.1529621 -0.041341,0.041341 -0.094396,0.062012 -0.15916323,0.062012 -0.0923285,0 -0.18121187,-0.024805 -0.26665016,-0.074414 C 0.62769851,3.8568637 0.55328451,3.7776265 0.48989481,3.6673836 0.44993174,3.5957257 0.42995021,3.5123545 0.42995021,3.4172699 v -0.746207 c 0,-0.059255 -0.009646,-0.099907 -0.0289388,-0.1219563 C 0.38171887,2.5270579 0.34037776,2.5125886 0.27698808,2.5056986 0.21359834,2.4974306 0.16467803,2.4746929 0.13022712,2.4374856 0.09715426,2.4002789 0.08061782,2.3513586 0.08061783,2.2907247 c -10e-9,-0.062011 0.01653643,-0.1116207 0.04960929,-0.148828 0.0344509,-0.037207 0.0833713,-0.059255 0.14676096,-0.066146 0.0647677,-0.00827 0.10404178,-0.021359 0.11782216,-0.039274 0.0234266,-0.027561 0.0351399,-0.07028 0.0351399,-0.1281574 V 1.201386 c 0,-0.1515841 0.0551215,-0.28249762 0.16536444,-0.39274058 0.11024296,-0.111621 0.23771138,-0.1674315 0.38240528,-0.1674315 0.0661457,0 0.11988924,0.0206706 0.16123034,0.0620117 0.042719,0.0413411 0.064079,0.0923285 0.064079,0.15296211 0,0.0564995 -0.018603,0.10473083 -0.05581,0.14469387 -0.037207,0.039963 -0.085438,0.062701 -0.1446939,0.068213 -0.0592556,0.00551 -0.0964626,0.017916 -0.11162098,0.037207 -0.0248047,0.028939 -0.037207,0.071658 -0.037207,0.1281575 V 1.908319 c 0,0.095085 -0.009646,0.1688095 -0.0289388,0.2211749 -0.0179145,0.050987 -0.0509873,0.1047308 -0.0992193,0.1612304 z"
         id="path4380"
         sodipodi:nodetypes="ccsscccscsccsssccscccsscscssccsscc" />
      <path
         d="m 2.3337075,0.77350548 q 0.1467609,0.0186035 0.2873207,0.0826822 0.033073,-0.0186035 0.062012,-0.0268717 0.031006,-0.0103353 0.059945,-0.0103353 0.095085,0 0.1529621,0.0661458 0.059945,0.0640787 0.059945,0.21704082 V 1.238593 q 0,0.1529621 -0.059945,0.2191079 -0.057878,0.064079 -0.1508951,0.064079 -0.084749,0 -0.1446938,-0.05581 -0.057878,-0.05581 -0.068213,-0.1632974 -0.148828,-0.1178222 -0.37207,-0.1178222 -0.2335773,0 -0.3431312,0.084749 -0.1074869,0.082682 -0.1074869,0.183968 0,0.078548 0.066146,0.1405597 0.066146,0.062012 0.2769854,0.1054199 l 0.2811196,0.059945 q 0.3555335,0.072347 0.5105627,0.2170408 0.2025715,0.183968 0.2025715,0.4857581 0,0.2645831 -0.186035,0.4712886 -0.183968,0.2046385 -0.5270992,0.2707843 v 0.3596677 q 0,0.1529621 -0.059945,0.2170408 -0.057878,0.066146 -0.1529621,0.066146 -0.093018,0 -0.1529621,-0.066146 -0.057878,-0.064079 -0.057878,-0.2170408 V 3.2043628 q -0.1653644,-0.03514 -0.3307289,-0.1095539 -0.088883,0.074414 -0.1653644,0.074414 -0.1012858,0 -0.1612304,-0.064079 -0.057878,-0.064079 -0.057878,-0.2170408 v -0.26665 q 0,-0.1529621 0.057878,-0.2170408 0.059945,-0.066146 0.1550292,-0.066146 0.076481,0 0.1281574,0.041341 0.051676,0.041341 0.074414,0.1281575 0.022738,0.084749 0.064079,0.1281574 0.062012,0.066146 0.188102,0.111621 0.1281575,0.043408 0.2625161,0.043408 0.2356443,0 0.3927405,-0.1219563 0.1054199,-0.080615 0.1054199,-0.2087726 0,-0.1054198 -0.07028,-0.1736327 -0.07028,-0.066146 -0.295589,-0.111621 L 1.9388999,2.1108904 Q 1.6019698,2.0447446 1.4448736,1.8690449 1.2877774,1.6933452 1.2877774,1.4473656 q 0,-0.2439126 0.1694985,-0.4340817 Q 1.6267745,0.82311481 1.9099611,0.77350548 V 0.65775036 q 0,-0.15089505 0.057878,-0.21497377 0.059945,-0.0661458 0.1550291,-0.0661458 0.093018,0 0.1508951,0.0661458 0.059945,0.0640787 0.059945,0.21497377 z"
         id="path4382" />
      <path
         d="M 3.5077941,2.2907243 C 3.4595628,2.2342248 3.4258009,2.1797923 3.4065084,2.1274269 3.3885939,2.0736834 3.3796367,2.0006475 3.3796367,1.908319 V 1.2344589 c 0,-0.056499 -0.011024,-0.096462 -0.033073,-0.1198893 -0.020671,-0.024805 -0.059945,-0.039963 -0.1178222,-0.045475 -0.057877,-0.00551 -0.1054196,-0.028251 -0.1426268,-0.068213 -0.037207,-0.0399631 -0.05581,-0.0881944 -0.05581,-0.1446939 0,-0.0606337 0.020671,-0.11162104 0.062012,-0.15296211 0.042719,-0.0413411 0.096463,-0.0620117 0.1612303,-0.0620117 0.092328,0 0.1812118,0.0248047 0.2666502,0.074414 0.085438,0.0482313 0.1598522,0.1274684 0.223242,0.23771139 0.039963,0.0716579 0.059945,0.15434012 0.059945,0.24804672 v 0.706933 c 0,0.059255 0.00965,0.1005964 0.028939,0.1240233 0.019293,0.022049 0.060634,0.036518 0.1240233,0.043408 0.06339,0.00689 0.1116213,0.028939 0.1446939,0.066146 0.034451,0.037207 0.051676,0.086817 0.051676,0.148828 0,0.060633 -0.017225,0.1095536 -0.051676,0.1467609 -0.033073,0.037207 -0.081993,0.059945 -0.146761,0.068213 -0.063389,0.00689 -0.1019744,0.019292 -0.1157551,0.037207 -0.023427,0.027561 -0.03514,0.07028 -0.03514,0.1281575 v 0.746207 c 0,0.1529621 -0.055121,0.2845646 -0.1653645,0.3948076 -0.110243,0.111621 -0.2377114,0.1674315 -0.3824052,0.1674315 -0.066146,0 -0.1205785,-0.020671 -0.1632974,-0.062012 -0.041341,-0.041341 -0.062012,-0.092329 -0.062012,-0.1529621 0,-0.056499 0.018603,-0.1047307 0.05581,-0.1446939 0.037207,-0.039963 0.085438,-0.062701 0.1446939,-0.068213 0.059255,-0.00551 0.096462,-0.017916 0.111621,-0.037207 0.024804,-0.028938 0.037207,-0.071658 0.037207,-0.1281571 V 2.7124036 c 0,-0.1185112 0.00827,-0.2039495 0.024805,-0.2563149 0.017915,-0.052365 0.052365,-0.1074868 0.103352,-0.1653644 z"
         id="path4384"
         sodipodi:nodetypes="ccsscccscsccsscscscccsscscssccsscc" />
    </g>
  </g>
</svg>
